<svg height="512pt" viewBox="-3 0 511 512" width="512pt" xmlns="http://www.w3.org/2000/svg"><path d="m438.886719 203.25c-55.652344 55.648438-145.878907 55.648438-201.53125 0-55.652344-55.652344-55.652344-145.878906 0-201.53125.582031-.582031 1.171875-1.148438 1.761719-1.71875-37.496094 5.058594-73.703126 21.988281-102.523438 50.808594-69.917969 69.921875-69.917969 183.28125 0 253.203125 69.917969 69.917969 183.28125 69.917969 253.199219 0 28.824219-28.820313 45.75-65.027344 50.8125-102.527344-.570313.589844-1.136719 1.183594-1.71875 1.765625zm0 0" fill="#ffd073"/><path d="m340.363281 339.023438c-66.542969 31.773437-148.652343 20.101562-203.769531-35.011719-69.917969-69.921875-69.917969-183.28125 0-253.199219 26.855469-26.855469 60.128906-43.394531 94.878906-49.605469-17.867187 8.519531-34.617187 20.191407-49.417968 34.988281-69.917969 69.921876-69.917969 183.277344 0 253.199219 43.058593 43.058594 102.59375 59.601563 158.308593 49.628907zm0 0" fill="#f28f44"/><path d="m442.558594 512c-18.945313 0-28.53125-9.390625-36.988282-17.675781-7.5625-7.40625-13.535156-13.253907-26.167968-13.253907-12.628906 0-18.601563 5.847657-26.164063 13.253907-8.457031 8.285156-18.042969 17.675781-36.988281 17.675781s-28.527344-9.390625-36.984375-17.675781c-7.5625-7.40625-13.535156-13.253907-26.167969-13.253907-12.628906 0-18.601562 5.847657-26.160156 13.253907-8.457031 8.285156-18.042969 17.675781-36.988281 17.675781-18.941407 0-28.527344-9.390625-36.984375-17.675781-7.5625-7.40625-13.535156-13.253907-26.164063-13.253907-12.632812 0-18.605469 5.847657-26.164062 13.253907-8.457031 8.285156-18.042969 17.675781-36.988281 17.675781-18.945313 0-28.527344-9.390625-36.988282-17.675781-7.558594-7.40625-13.53125-13.253907-26.160156-13.253907v-15.46875c18.945312 0 28.527344 9.390626 36.984375 17.675782 7.5625 7.40625 13.53125 13.257812 26.164063 13.257812 12.632812 0 18.605468-5.851562 26.164062-13.257812 8.457031-8.285156 18.042969-17.675782 36.988281-17.675782 18.945313 0 28.53125 9.390626 36.984375 17.675782 7.5625 7.40625 13.535156 13.257812 26.164063 13.257812 12.632812 0 18.605469-5.851562 26.164062-13.257812 8.457031-8.285156 18.042969-17.675782 36.984375-17.675782 18.945313 0 28.53125 9.390626 36.988282 17.675782 7.5625 7.40625 13.535156 13.257812 26.164062 13.257812 12.632812 0 18.605469-5.851562 26.167969-13.257812 8.453125-8.285156 18.039062-17.675782 36.984375-17.675782 18.949218 0 28.535156 9.390626 36.992187 17.675782 7.5625 7.40625 13.535157 13.257812 26.164063 13.257812 12.632812 0 18.605468-5.851562 26.167968-13.257812 8.457032-8.285156 18.042969-17.675782 36.988282-17.675782v15.46875c-12.628906 0-18.605469 5.847657-26.164063 13.253907-8.457031 8.285156-18.042969 17.675781-36.992187 17.675781zm0 0" fill="#84abc1"/><path d="m442.558594 454.964844c-18.945313 0-28.53125-9.390625-36.988282-17.675782-7.5625-7.40625-13.535156-13.257812-26.167968-13.257812-12.628906 0-18.601563 5.851562-26.164063 13.257812-8.457031 8.285157-18.042969 17.675782-36.988281 17.675782s-28.527344-9.390625-36.984375-17.675782c-7.5625-7.40625-13.535156-13.257812-26.167969-13.257812-12.628906 0-18.601562 5.851562-26.160156 13.257812-8.457031 8.28125-18.042969 17.675782-36.988281 17.675782-18.941407 0-28.527344-9.390625-36.984375-17.675782-7.5625-7.40625-13.535156-13.257812-26.164063-13.257812-12.632812 0-18.605469 5.851562-26.164062 13.257812-8.457031 8.285157-18.042969 17.675782-36.988281 17.675782-18.945313 0-28.527344-9.390625-36.988282-17.675782-7.558594-7.410156-13.53125-13.257812-26.160156-13.257812v-15.464844c18.945312 0 28.527344 9.390625 36.984375 17.671875 7.5625 7.410157 13.53125 13.257813 26.164063 13.257813 12.632812 0 18.605468-5.847656 26.164062-13.253906 8.457031-8.285157 18.042969-17.675782 36.988281-17.675782 18.945313 0 28.53125 9.390625 36.984375 17.675782 7.5625 7.40625 13.535156 13.253906 26.164063 13.253906 12.632812 0 18.605469-5.847656 26.164062-13.253906 8.457031-8.285157 18.042969-17.675782 36.984375-17.675782 18.945313 0 28.53125 9.390625 36.988282 17.671875 7.5625 7.410157 13.535156 13.257813 26.164062 13.257813 12.632812 0 18.605469-5.847656 26.167969-13.253906 8.453125-8.285157 18.039062-17.675782 36.984375-17.675782 18.949218 0 28.535156 9.390625 36.992187 17.671875 7.5625 7.410157 13.535157 13.257813 26.164063 13.257813 12.632812 0 18.605468-5.847656 26.167968-13.257813 8.457032-8.28125 18.042969-17.671875 36.988282-17.671875v15.464844c-12.628906 0-18.605469 5.851562-26.164063 13.257812-8.457031 8.285157-18.042969 17.675782-36.992187 17.675782zm0 0" fill="#84abc1"/><g fill="#cc9236"><path d="m142.003906 213.929688c-2.804687 0-5.417968-1.773438-6.355468-4.574219l-2.929688-8.75c-1.175781-3.511719.71875-7.308594 4.230469-8.484375 3.503906-1.175782 7.304687.71875 8.480469 4.230468l2.929687 8.746094c1.175781 3.511719-.714844 7.308594-4.226563 8.484375-.707031.234375-1.425781.347657-2.128906.347657zm0 0"/><path d="m184.621094 199.664062c-2.800782 0-5.414063-1.773437-6.351563-4.578124l-2.929687-8.746094c-1.175782-3.511719.71875-7.308594 4.230468-8.484375 3.507813-1.175781 7.308594.71875 8.480469 4.230469l2.929688 8.746093c1.175781 3.511719-.71875 7.308594-4.230469 8.484375-.707031.234375-1.421875.347656-2.128906.347656zm0 0"/><path d="m166.472656 255.792969c-9.011718 0-17.972656-2.089844-26.273437-6.226563-3.3125-1.652344-4.660157-5.675781-3.007813-8.988281s5.679688-4.660156 8.988282-3.007813c10.90625 5.4375 23.273437 6.300782 34.828124 2.429688 11.554688-3.867188 20.914063-12 26.347657-22.90625 1.652343-3.3125 5.679687-4.660156 8.988281-3.007812 3.3125 1.652343 4.660156 5.675781 3.007812 8.988281-7.03125 14.109375-19.136718 24.632812-34.089843 29.640625-6.152344 2.058594-12.484375 3.078125-18.789063 3.078125zm0 0"/></g></svg>