<svg height="512pt" viewBox="0 -6 512 511" width="512pt" xmlns="http://www.w3.org/2000/svg"><path d="m437.636719 290.40625c-4.339844 32.191406-17.371094 63.433594-39.097657 89.933594h-279.1875c-58.097656-70.824219-54.066406-175.5625 12.078126-241.695313 29.027343-29.035156 65.488281-46.089843 103.257812-51.179687-.589844.574218-1.183594 1.144531-1.773438 1.726562-56.050781 56.058594-56.050781 146.941406 0 202.988282 56.058594 56.0625 146.941407 56.0625 202.988282 0 .59375-.582032 1.164062-1.183594 1.734375-1.773438zm0 0" fill="#ffd073"/><path d="m177.21875 378.949219c.464844.46875.933594.933593 1.410156 1.390625h-59.277344c-58.097656-70.835938-54.066406-175.5625 12.078126-241.695313 27.042968-27.054687 60.554687-43.710937 95.554687-49.964843-18 8.582031-34.863281 20.335937-49.765625 35.238281-70.433594 70.433593-70.433594 184.609375 0 255.03125zm0 0" fill="#f28f44"/><path d="m442.964844 179.574219 22.152344-4.328125c9.707031-1.898438 9.707031-15.78125 0-17.679688l-22.152344-4.328125c-12.605469-2.460937-22.460938-12.320312-24.925782-24.925781l-4.328124-22.152344c-1.898438-9.707031-15.78125-9.707031-17.679688 0l-4.328125 22.152344c-2.464844 12.605469-12.320313 22.460938-24.925781 24.925781l-22.152344 4.328125c-9.707031 1.898438-9.707031 15.78125 0 17.679688l22.152344 4.328125c12.605468 2.464843 22.460937 12.320312 24.925781 24.929687l4.328125 22.148438c1.898438 9.707031 15.78125 9.707031 17.679688 0l4.328124-22.148438c2.464844-12.609375 12.320313-22.464844 24.925782-24.929687zm0 0" fill="#ffee8c"/><path d="m114.207031 66.839844 18.210938-3.558594c7.980469-1.558594 7.980469-12.972656 0-14.53125l-18.210938-3.558594c-10.363281-2.027344-18.46875-10.128906-20.492187-20.496094l-3.558594-18.210937c-1.558594-7.980469-12.976562-7.980469-14.535156 0l-3.558594 18.210937c-2.023438 10.363282-10.128906 18.46875-20.496094 20.496094l-18.210937 3.558594c-7.976563 1.558594-7.976563 12.972656 0 14.535156l18.210937 3.558594c10.367188 2.023438 18.46875 10.128906 20.496094 20.492188l3.558594 18.210937c1.558594 7.980469 12.972656 7.980469 14.535156 0l3.558594-18.210937c2.023437-10.367188 10.128906-18.46875 20.492187-20.496094zm0 0" fill="#ffee8c"/><path d="m135.546875 298.320312c-2.824219 0-5.453125-1.785156-6.402344-4.609374l-2.949219-8.8125c-1.183593-3.535157.722657-7.359376 4.257813-8.542969 3.535156-1.1875 7.363281.722656 8.546875 4.257812l2.949219 8.8125c1.183593 3.535157-.722657 7.359375-4.257813 8.542969-.710937.238281-1.433594.351562-2.144531.351562zm0 0" fill="#cc9236"/><path d="m178.476562 283.953125c-2.824218 0-5.457031-1.785156-6.402343-4.613281l-2.949219-8.808594c-1.183594-3.535156.722656-7.363281 4.261719-8.546875 3.53125-1.183594 7.359375.726563 8.542969 4.261719l2.949218 8.8125c1.183594 3.535156-.722656 7.359375-4.261718 8.542968-.710938.238282-1.433594.351563-2.140626.351563zm0 0" fill="#cc9236"/><path d="m160.195312 340.488281c-9.078124 0-18.101562-2.101562-26.464843-6.273437-3.335938-1.664063-4.695313-5.714844-3.03125-9.050782 1.667969-3.335937 5.722656-4.695312 9.054687-3.03125 10.984375 5.476563 23.441406 6.347657 35.082032 2.449219 11.636718-3.894531 21.0625-12.089843 26.539062-23.074219 1.664062-3.335937 5.71875-4.691406 9.050781-3.027343 3.335938 1.664062 4.695313 5.714843 3.03125 9.050781-7.085937 14.210938-19.277343 24.816406-34.335937 29.855469-6.199219 2.074219-12.574219 3.101562-18.925782 3.101562zm0 0" fill="#cc9236"/><g fill="#84abc1"><path d="m7.789062 388.164062h496.421876c4.300781 0 7.789062-3.488281 7.789062-7.789062 0-4.304688-3.488281-7.789062-7.789062-7.789062h-496.421876c-4.300781 0-7.789062 3.484374-7.789062 7.789062 0 4.300781 3.488281 7.789062 7.789062 7.789062zm0 0"/><path d="m34.679688 425.542969h98.136718c4.300782 0 7.789063-3.488281 7.789063-7.789063 0-4.300781-3.488281-7.789062-7.789063-7.789062h-98.136718c-4.300782 0-7.789063 3.488281-7.789063 7.789062 0 4.300782 3.488281 7.789063 7.789063 7.789063zm0 0"/><path d="m163.972656 425.542969h313.347656c4.300782 0 7.789063-3.488281 7.789063-7.789063 0-4.300781-3.488281-7.789062-7.789063-7.789062h-313.347656c-4.300781 0-7.789062 3.488281-7.789062 7.789062 0 4.300782 3.488281 7.789063 7.789062 7.789063zm0 0"/><path d="m62.71875 462.929688h272.601562c4.300782 0 7.789063-3.488282 7.789063-7.789063 0-4.304687-3.488281-7.789063-7.789063-7.789063h-272.601562c-4.300781 0-7.789062 3.484376-7.789062 7.789063 0 4.300781 3.488281 7.789063 7.789062 7.789063zm0 0"/><path d="m366.476562 462.929688h82.804688c4.300781 0 7.789062-3.488282 7.789062-7.789063 0-4.304687-3.488281-7.789063-7.789062-7.789063h-82.804688c-4.300781 0-7.789062 3.484376-7.789062 7.789063 0 4.300781 3.488281 7.789063 7.789062 7.789063zm0 0"/><path d="m84.527344 500.3125h342.945312c4.300782 0 7.789063-3.488281 7.789063-7.789062 0-4.300782-3.488281-7.789063-7.789063-7.789063h-342.945312c-4.300782 0-7.789063 3.488281-7.789063 7.789063 0 4.300781 3.488281 7.789062 7.789063 7.789062zm0 0"/></g></svg>