<svg height="511pt" viewBox="-3 0 511 511.99911" width="511pt" xmlns="http://www.w3.org/2000/svg"><g fill="#d3ddea"><path d="m101.207031 452.777344c-2.136719-3.703125-6.875-4.972656-10.578125-2.835938l-15.875 9.167969v-18.332031c0-4.277344-3.464844-7.742188-7.742187-7.742188-4.277344 0-7.742188 3.464844-7.742188 7.742188v18.332031l-15.875-9.167969c-3.703125-2.136718-8.4375-.867187-10.574219 2.835938-2.136718 3.703125-.871093 8.4375 2.832032 10.574218l15.875 9.164063-15.875 9.167969c-3.703125 2.136718-4.96875 6.871094-2.832032 10.574218 1.433594 2.484376 4.035157 3.871094 6.710938 3.871094 1.3125 0 2.644531-.332031 3.863281-1.039062l15.875-9.164063v18.332031c0 4.273438 3.464844 7.742188 7.742188 7.742188 4.277343 0 7.742187-3.46875 7.742187-7.742188v-18.332031l15.875 9.164063c1.222656.707031 2.550782 1.039062 3.863282 1.039062 2.675781 0 5.277343-1.386718 6.714843-3.871094 2.136719-3.703124.867188-8.4375-2.835937-10.574218l-15.875-9.167969 15.875-9.164063c3.703125-2.136718 4.972656-6.871093 2.835937-10.574218zm0 0"/><path d="m224.925781 416.644531c-2.136719-3.703125-6.875-4.972656-10.574219-2.832031l-15.875 9.164062v-18.332031c0-4.273437-3.464843-7.742187-7.742187-7.742187s-7.742187 3.46875-7.742187 7.742187v18.332031l-15.875-9.164062c-3.707032-2.140625-8.441407-.871094-10.578126 2.832031-2.136718 3.703125-.867187 8.4375 2.835938 10.574219l15.875 9.167969-15.875 9.164062c-3.703125 2.136719-4.972656 6.875-2.835938 10.574219 1.433594 2.484375 4.039063 3.875 6.714844 3.875 1.3125 0 2.644532-.335938 3.863282-1.039062l15.875-9.167969v18.332031c0 4.277344 3.464843 7.742188 7.742187 7.742188s7.742187-3.464844 7.742187-7.742188v-18.332031l15.875 9.167969c1.21875.703124 2.550782 1.039062 3.863282 1.039062 2.675781 0 5.277344-1.390625 6.710937-3.875 2.136719-3.699219.871094-8.4375-2.832031-10.574219l-15.875-9.164062 15.875-9.167969c3.703125-2.136719 4.972656-6.871094 2.832031-10.574219zm0 0"/><path d="m348.648438 452.777344c-2.136719-3.703125-6.875-4.972656-10.574219-2.835938l-15.875 9.167969v-18.332031c0-4.277344-3.46875-7.742188-7.742188-7.742188-4.277343 0-7.742187 3.464844-7.742187 7.742188v18.332031l-15.875-9.167969c-3.707032-2.136718-8.441406-.867187-10.578125 2.835938s-.867188 8.4375 2.835937 10.574218l15.875 9.164063-15.875 9.167969c-3.703125 2.136718-4.972656 6.871094-2.835937 10.574218 1.433593 2.484376 4.039062 3.871094 6.710937 3.871094 1.316406 0 2.648438-.332031 3.867188-1.039062l15.875-9.164063v18.332031c0 4.273438 3.464844 7.742188 7.742187 7.742188 4.273438 0 7.742188-3.46875 7.742188-7.742188v-18.332031l15.875 9.164063c1.21875.707031 2.550781 1.039062 3.863281 1.039062 2.675781 0 5.277344-1.386718 6.710938-3.871094 2.136718-3.703124.867187-8.4375-2.832032-10.574218l-15.875-9.167969 15.875-9.164063c3.699219-2.136718 4.96875-6.871093 2.832032-10.574218zm0 0"/><path d="m469.535156 445.550781-15.875-9.164062 15.875-9.167969c3.703125-2.136719 4.972656-6.871094 2.835938-10.574219-2.136719-3.703125-6.875-4.972656-10.578125-2.832031l-15.875 9.164062v-18.332031c0-4.273437-3.464844-7.742187-7.742188-7.742187-4.277343 0-7.742187 3.46875-7.742187 7.742187v18.332031l-15.875-9.164062c-3.703125-2.140625-8.4375-.871094-10.574219 2.832031s-.871094 8.4375 2.832031 10.574219l15.875 9.167969-15.875 9.164062c-3.703125 2.136719-4.96875 6.875-2.832031 10.574219 1.433594 2.484375 4.035156 3.875 6.710937 3.875 1.3125 0 2.644532-.335938 3.863282-1.039062l15.875-9.167969v18.332031c0 4.277344 3.464844 7.742188 7.742187 7.742188 4.277344 0 7.742188-3.464844 7.742188-7.742188v-18.332031l15.875 9.167969c1.222656.703124 2.550781 1.039062 3.863281 1.039062 2.675781 0 5.277344-1.390625 6.714844-3.875 2.136718-3.699219.867187-8.4375-2.835938-10.574219zm0 0"/></g><path d="m482.703125 177.089844c0-15.046875 27.261719-33.472656 23.550781-47.351563-3.835937-14.359375-36.769531-16.671875-44.042968-29.242187-7.378907-12.753906 7.003906-42.410156-3.34375-52.761719-10.351563-10.347656-40.007813 4.035156-52.761719-3.34375-12.570313-7.273437-14.882813-40.207031-29.242188-44.042969-13.878906-3.710937-32.304687 23.550782-47.351562 23.550782s-33.472657-27.261719-47.347657-23.550782c-14.359374 3.835938-16.671874 36.769532-29.246093 44.042969-12.75 7.378906-42.410157-7.003906-52.757813 3.34375-10.351562 10.351563 4.03125 40.007813-3.34375 52.761719-7.273437 12.570312-40.207031 14.882812-44.046875 29.242187-3.707031 13.878907 23.554688 32.304688 23.554688 47.351563s-27.261719 33.472656-23.554688 47.347656c3.839844 14.359375 36.773438 16.671875 44.046875 29.246094 7.378906 12.753906-7.003906 42.410156 3.34375 52.757812 10.347656 10.351563 40.007813-4.03125 52.761719 3.347656 12.570313 7.273438 14.882813 40.207032 29.242187 44.042969 13.875 3.707031 32.300782-23.554687 47.347657-23.554687s33.472656 27.265625 47.351562 23.554687c14.359375-3.839843 16.671875-36.769531 29.242188-44.046875 12.753906-7.378906 42.414062 7.007813 52.761719-3.34375 10.347656-10.347656-4.035157-40.003906 3.34375-52.757812 7.273437-12.574219 40.207031-14.886719 44.042968-29.246094 3.710938-13.875-23.550781-32.300781-23.550781-47.347656zm0 0" fill="#ffee8c"/><path d="m447.777344 177.089844c0 59.730468-44.289063 109.121094-101.824219 117.121094-5.371094.753906-10.855469 1.136718-16.4375 1.136718-65.3125 0-118.265625-52.945312-118.265625-118.261718 0-65.3125 52.953125-118.257813 118.265625-118.257813 5.582031 0 11.066406.382813 16.4375 1.136719 57.535156 8 101.824219 57.390625 101.824219 117.125zm0 0" fill="#f28f44"/><path d="m447.777344 177.089844c0 59.730468-44.289063 109.121094-101.824219 117.121094-57.535156-8-101.824219-57.390626-101.824219-117.121094 0-59.734375 44.289063-109.125 101.824219-117.125 57.535156 8 101.824219 57.390625 101.824219 117.125zm0 0" fill="#ffd073"/><path d="m327.644531 253.957031c0 30.367188-24.617187 54.988281-54.996093 54.988281h-199.023438c-40.382812 0-73.125-32.734374-73.125-73.125 0-40.382812 32.742188-73.125 73.125-73.125 3.625 0 7.1875.277344 10.675781.785157 16.515625-32.796875 50.476563-55.300781 89.714844-55.300781 47.472656 0 87.246094 32.960937 97.691406 77.246093 1.042969 4.417969 1.796875 8.949219 2.230469 13.5625v.011719c29.769531.679688 53.707031 25.019531 53.707031 54.957031zm0 0" fill="#d3ddea"/><path d="m208.902344 114.417969c-10.867188-4.035157-22.625-6.234375-34.890625-6.234375-39.234375 0-73.1875 22.503906-89.714844 55.289062v.007813c-3.488281-.503907-7.046875-.78125-10.671875-.78125-40.390625 0-73.125 32.742187-73.125 73.125 0 40.390625 32.734375 73.125 73.125 73.125h35.34375c-36.398438 0-65.886719-29.503907-65.886719-65.890625 0-32.289063 23.222657-59.160156 53.894531-64.792969 3.035157-.570313 6.140626-.921875 9.308594-1.042969.886719-.03125 1.785156-.054687 2.683594-.054687 11.832031 0 22.9375 3.121093 32.527344 8.589843-1.332032-9.28125-10.929688-17.980468-25.078125-24.988281 7.769531-26.273437 34.210937-50.640625 92.484375-46.351562zm0 0" fill="#84abc1"/><path d="m457.441406 327.066406c0 30.367188-24.621094 54.988282-55 54.988282h-199.019531c-40.382813 0-73.128906-32.734376-73.128906-73.125 0-40.382813 32.746093-73.125 73.128906-73.125 3.621094 0 7.183594.277343 10.671875.785156 16.515625-32.796875 50.476562-55.300782 89.714844-55.300782 47.472656 0 87.246094 32.960938 97.691406 77.246094 1.042969 4.417969 1.796875 8.949219 2.230469 13.5625v.011719c29.769531.679687 53.710937 25.019531 53.710937 54.957031zm0 0" fill="#d3ddea"/><path d="m338.699219 187.527344c-10.871094-4.035156-22.628907-6.234375-34.890625-6.234375-39.238282 0-73.1875 22.503906-89.714844 55.289062v.011719c-3.488281-.507812-7.050781-.785156-10.671875-.785156-40.394531 0-73.128906 32.742187-73.128906 73.125 0 40.390625 32.734375 73.125 73.128906 73.125h35.34375c-36.398437 0-65.890625-29.503906-65.890625-65.890625 0-32.289063 23.226562-59.15625 53.894531-64.792969 3.035157-.570312 6.140625-.917969 9.3125-1.042969.886719-.03125 1.785157-.050781 2.683594-.050781 11.828125 0 22.9375 3.117188 32.527344 8.585938-1.332031-9.28125-10.929688-17.976563-25.082031-24.984376 7.769531-26.277343 34.214843-50.644531 92.488281-46.355468zm0 0" fill="#84abc1"/><path d="m325.640625 118.667969c-3.421875 0-6.195313-2.777344-6.195313-6.195313v-6.816406c0-3.417969 2.773438-6.191406 6.195313-6.191406 3.417969 0 6.191406 2.773437 6.191406 6.191406v6.816406c0 3.421875-2.773437 6.195313-6.191406 6.195313zm0 0" fill="#cc9236"/><path d="m373.292969 118.667969c-3.417969 0-6.191407-2.777344-6.191407-6.195313v-6.816406c0-3.417969 2.773438-6.191406 6.191407-6.191406 3.421875 0 6.195312 2.773437 6.195312 6.191406v6.816406c0 3.421875-2.773437 6.195313-6.195312 6.195313zm0 0" fill="#cc9236"/><path d="m359.960938 156.148438h-16.515626c-3.417968 0-6.191406-2.773438-6.191406-6.191407 0-3.421875 2.773438-6.195312 6.191406-6.195312h16.515626c3.421874 0 6.195312 2.773437 6.195312 6.195312 0 3.417969-2.773438 6.191407-6.195312 6.191407zm0 0" fill="#cc9236"/></svg>