<svg height="512pt" viewBox="-1 0 511 512" width="512pt" xmlns="http://www.w3.org/2000/svg"><path d="m445.835938 397.082031c-16.320313 0-26.078126-7.132812-34.1875-14.835937-1.03125-.980469-2.050782-1.976563-3.066407-2.972656-7.617187-7.460938-13.636719-13.355469-26.367187-13.355469-12.726563 0-18.746094 5.894531-26.363282 13.359375-8.519531 8.34375-18.175781 17.804687-37.253906 17.804687-19.089844 0-28.75-9.460937-37.269531-17.808593-7.617187-7.460938-13.632813-13.355469-26.351563-13.355469-12.722656 0-18.738281 5.894531-26.355468 13.355469-8.519532 8.347656-18.175782 17.808593-37.265625 17.808593-19.082031 0-28.738281-9.460937-37.257813-17.804687-7.617187-7.464844-13.632812-13.359375-26.363281-13.359375-12.71875 0-18.738281 5.894531-26.355469 13.355469-1.015625.996093-2.03125 1.992187-3.066406 2.972656-8.109375 7.703125-17.863281 14.835937-34.199219 14.835937-19.082031 0-28.738281-9.460937-37.257812-17.808593-7.613281-7.460938-13.628907-13.355469-26.351563-13.355469v-15.578125c19.082032 0 28.738282 9.457031 37.257813 17.804687 7.617187 7.460938 13.628906 13.355469 26.351562 13.355469 11.433594 0 17.394531-4.777344 23.46875-10.550781.976563-.925781 1.9375-1.867188 2.894531-2.804688 8.519532-8.347656 18.179688-17.804687 37.257813-17.804687 19.089844 0 28.746094 9.460937 37.269531 17.804687 7.613282 7.460938 13.628906 13.355469 26.351563 13.355469 12.730469 0 18.746093-5.894531 26.363281-13.355469 8.519531-8.347656 18.175781-17.804687 37.257812-17.804687 19.082032 0 28.734376 9.457031 37.253907 17.804687 7.621093 7.460938 13.636719 13.355469 26.367187 13.355469 12.71875 0 18.734375-5.894531 26.351563-13.355469 8.519531-8.34375 18.179687-17.804687 37.265625-17.804687 19.089844 0 28.75 9.457031 37.269531 17.804687.960937.9375 1.917969 1.878907 2.894531 2.804688 6.078125 5.773437 12.035156 10.550781 23.457032 10.550781 12.730468 0 18.746093-5.894531 26.367187-13.355469 8.519531-8.347656 18.175781-17.804687 37.265625-17.804687v15.578125c-12.730469 0-18.746094 5.894531-26.363281 13.355469-8.523438 8.347656-18.179688 17.808593-37.269531 17.808593zm0 0" fill="#84abc1"/><path d="m420.742188 215.289062-3.730469 34.878907v191.160156c-9.078125-8.621094-16.910157-18.464844-34.796875-18.464844-31.8125 0-31.8125 31.160157-63.617188 31.160157-31.816406 0-31.816406-31.160157-63.621094-31.160157-31.804687 0-31.804687 31.160157-63.621093 31.160157-31.804688 0-31.804688-31.160157-63.621094-31.160157-17.875 0-25.707031 9.84375-34.785156 18.464844v-238.503906l165.765625-149.574219zm0 0" fill="#d3ddea"/><g fill="#84abc1"><path d="m445.839844 512c-19.085938 0-28.742188-9.460938-37.261719-17.804688-7.617187-7.460937-13.636719-13.355468-26.363281-13.355468-12.726563 0-18.742188 5.894531-26.359375 13.355468-8.519531 8.34375-18.175781 17.804688-37.261719 17.804688s-28.742188-9.460938-37.261719-17.804688c-7.617187-7.464843-13.632812-13.355468-26.355469-13.355468-12.726562 0-18.742187 5.894531-26.359374 13.355468-8.519532 8.34375-18.175782 17.804688-37.261719 17.804688-19.082031 0-28.738281-9.460938-37.257813-17.804688-7.617187-7.460937-13.632812-13.355468-26.359375-13.355468-12.726562 0-18.742187 5.894531-26.359375 13.355468-8.519531 8.34375-18.175781 17.804688-37.261718 17.804688-19.085938 0-28.742188-9.460938-37.261719-17.804688-7.613281-7.464843-13.632813-13.355468-26.355469-13.355468v-15.582032c19.085938 0 28.742188 9.460938 37.261719 17.808594 7.617187 7.460938 13.632812 13.351563 26.355469 13.351563 12.726562 0 18.742187-5.890625 26.359374-13.355469 8.519532-8.34375 18.175782-17.804688 37.261719-17.804688 19.082031 0 28.738281 9.460938 37.261719 17.804688 7.613281 7.464844 13.632812 13.355469 26.355469 13.355469 12.726562 0 18.742187-5.890625 26.359375-13.351563 8.519531-8.347656 18.175781-17.808594 37.257812-17.808594 19.085938 0 28.742188 9.460938 37.261719 17.804688 7.617187 7.464844 13.632813 13.355469 26.359375 13.355469s18.742188-5.890625 26.359375-13.351563c8.519531-8.347656 18.175781-17.808594 37.261719-17.808594 19.085937 0 28.742187 9.460938 37.265625 17.804688 7.617187 7.464844 13.632812 13.355469 26.359375 13.355469 12.726562 0 18.742187-5.890625 26.363281-13.355469 8.519531-8.34375 18.175781-17.804688 37.261719-17.804688v15.582032c-12.726563 0-18.742188 5.894531-26.359375 13.355468-8.523438 8.34375-18.179688 17.804688-37.265625 17.804688zm0 0"/><path d="m445.835938 454.542969c-16.320313 0-26.078126-7.132813-34.1875-14.835938-1.03125-.980469-2.046876-1.976562-3.066407-2.96875-7.617187-7.464843-13.636719-13.355469-26.367187-13.355469-12.726563 0-18.746094 5.894532-26.363282 13.355469-8.519531 8.34375-18.175781 17.804688-37.253906 17.804688-19.089844 0-28.75-9.460938-37.269531-17.808594-7.617187-7.460937-13.632813-13.351563-26.351563-13.351563-12.722656 0-18.738281 5.890626-26.355468 13.351563-8.519532 8.347656-18.175782 17.808594-37.265625 17.808594-19.082031 0-28.738281-9.460938-37.257813-17.804688-7.617187-7.464843-13.632812-13.355469-26.363281-13.355469-12.71875 0-18.738281 5.890626-26.355469 13.351563-1.015625.996094-2.03125 1.992187-3.066406 2.972656-8.109375 7.703125-17.867188 14.835938-34.199219 14.835938-19.082031 0-28.738281-9.460938-37.257812-17.808594-7.613281-7.460937-13.628907-13.351563-26.351563-13.351563v-15.582031c19.082032 0 28.738282 9.460938 37.257813 17.804688 7.617187 7.464843 13.628906 13.355469 26.351562 13.355469 11.433594 0 17.394531-4.777344 23.46875-10.550782.976563-.925781 1.9375-1.863281 2.894531-2.804687 8.519532-8.34375 18.179688-17.804688 37.257813-17.804688 19.089844 0 28.746094 9.460938 37.269531 17.808594 7.613282 7.460937 13.632813 13.351563 26.351563 13.351563 12.730469 0 18.746093-5.894532 26.363281-13.355469 8.519531-8.34375 18.175781-17.804688 37.257812-17.804688 19.082032 0 28.738282 9.457031 37.257813 17.804688 7.617187 7.460937 13.632813 13.355469 26.363281 13.355469 12.71875 0 18.738282-5.890626 26.351563-13.351563 8.519531-8.347656 18.179687-17.808594 37.269531-17.808594s28.746094 9.460938 37.269531 17.804688c.957031.941406 1.917969 1.878906 2.890625 2.804687 6.078125 5.773438 12.035156 10.550782 23.460938 10.550782 12.726562 0 18.742187-5.894532 26.363281-13.355469 8.519531-8.34375 18.179687-17.804688 37.265625-17.804688v15.582031c-12.726562 0-18.746094 5.890626-26.363281 13.355469-8.523438 8.34375-18.179688 17.804688-37.269531 17.804688zm0 0"/><path d="m420.742188 215.289062-3.730469 34.878907v32.8125l-162.027344-162.027344-162.035156 162.027344v-80.15625l165.765625-149.574219zm0 0"/><path d="m441.296875 274.453125-186.3125-186.316406-186.316406 186.316406-44.070313-44.070313 230.386719-230.382812 230.382813 230.382812zm0 0"/></g><path d="m189.074219 233.976562h135.542969v135.542969h-135.542969zm0 0" fill="#fff"/><path d="m332.40625 377.3125h-151.125v-151.125h151.125zm-135.542969-15.582031h119.964844v-119.960938h-119.964844zm0 0" fill="#84abc1"/><path d="m256.84375 377.3125c-4.300781 0-7.789062-3.488281-7.789062-7.789062v-135.546876c0-4.300781 3.488281-7.789062 7.789062-7.789062 4.304688 0 7.792969 3.488281 7.792969 7.789062v135.546876c0 4.300781-3.488281 7.789062-7.792969 7.789062zm0 0" fill="#84abc1"/><path d="m65.140625 25.726562c-12.722656 7.367188-21.292969 21.117188-21.292969 36.875 0 .5625.011719 1.125.035156 1.679688 1.039063 26.769531 41.480469 26.769531 42.519532 0 .023437-.554688.03125-1.117188.03125-1.679688.003906-15.757812-8.566406-29.507812-21.292969-36.875zm0 0" fill="#84abc1"/><path d="m65.140625 84.363281c-10.363281 0-20.730469-6.699219-21.25-20.078125-.019531-.5625-.042969-1.121094-.042969-1.683594 0-15.757812 8.570313-29.507812 21.292969-36.875-2.5625 7.367188-4.289063 21.117188-4.289063 36.875 0 .5625 0 1.121094.011719 1.683594.105469 13.378906 2.191407 20.078125 4.277344 20.078125zm0 0" fill="#4d87a1"/><path d="m471.761719 92.597656c-12.722657 7.363282-21.292969 21.113282-21.292969 36.875 0 .5625.011719 1.121094.035156 1.679688 1.039063 26.769531 41.480469 26.769531 42.519532 0 .023437-.558594.03125-1.117188.03125-1.679688 0-15.761718-8.566407-29.511718-21.292969-36.875zm0 0" fill="#84abc1"/><path d="m471.761719 151.230469c-10.363281 0-20.730469-6.699219-21.25-20.078125-.019531-.5625-.042969-1.121094-.042969-1.683594 0-15.757812 8.570312-29.507812 21.292969-36.875-2.5625 7.367188-4.289063 21.117188-4.289063 36.875 0 .5625 0 1.121094.011719 1.683594.101563 13.378906 2.191406 20.078125 4.277344 20.078125zm0 0" fill="#4d87a1"/><path d="m36.125 280.464844c-12.726562 7.367187-21.296875 21.117187-21.296875 36.875 0 .5625.011719 1.125.035156 1.683594 1.039063 26.769531 41.480469 26.769531 42.519531 0 .023438-.558594.03125-1.121094.03125-1.683594.003907-15.757813-8.566406-29.507813-21.289062-36.875zm0 0" fill="#84abc1"/><path d="m36.125 339.101562c-10.367188 0-20.734375-6.699218-21.253906-20.078124-.019532-.5625-.042969-1.121094-.042969-1.683594 0-15.757813 8.570313-29.507813 21.296875-36.875-2.566406 7.367187-4.292969 21.117187-4.292969 36.875 0 .5625 0 1.121094.011719 1.683594.105469 13.378906 2.191406 20.078124 4.28125 20.078124zm0 0" fill="#4d87a1"/><path d="m393.875 8.589844c-12.726562 7.363281-21.292969 21.113281-21.292969 36.875 0 .5625.011719 1.121094.03125 1.679687 1.039063 26.769531 41.480469 26.769531 42.523438 0 .019531-.558593.03125-1.117187.03125-1.679687 0-15.761719-8.566407-29.511719-21.292969-36.875zm0 0" fill="#84abc1"/><path d="m393.875 67.222656c-10.367188 0-20.734375-6.699218-21.25-20.078125-.023438-.558593-.042969-1.121093-.042969-1.679687 0-15.757813 8.570313-29.511719 21.292969-36.875-2.566406 7.363281-4.289062 21.117187-4.289062 36.875 0 .558594 0 1.121094.007812 1.679687.105469 13.378907 2.195312 20.078125 4.28125 20.078125zm0 0" fill="#4d87a1"/></svg>