<svg height="512pt" viewBox="-147 0 512 512" width="512pt" xmlns="http://www.w3.org/2000/svg"><path d="m109.078125 512c-60.242187 0-109.078125-48.835938-109.078125-109.074219v-293.851562c0-60.238281 48.835938-109.074219 109.078125-109.074219s109.074219 48.835938 109.074219 109.074219v293.847656c0 60.242187-48.832032 109.078125-109.074219 109.078125zm0 0" fill="#d3ddea"/><g fill="#84abc1"><path d="m169.089844 88.773438h-44.335938c-4.328125 0-7.835937-3.507813-7.835937-7.835938s3.507812-7.835938 7.835937-7.835938h44.335938c4.328125 0 7.835937 3.507813 7.835937 7.835938s-3.507812 7.835938-7.835937 7.835938zm0 0"/><path d="m169.089844 339.539062h-44.335938c-4.328125 0-7.835937-3.507812-7.835937-7.835937s3.507812-7.839844 7.835937-7.839844h44.335938c4.328125 0 7.835937 3.511719 7.835937 7.839844s-3.507812 7.835937-7.835937 7.835937zm0 0"/><path d="m169.089844 297.742188h-44.335938c-4.328125 0-7.835937-3.507813-7.835937-7.835938s3.507812-7.835938 7.835937-7.835938h44.335938c4.328125 0 7.835937 3.507813 7.835937 7.835938s-3.507812 7.835938-7.835937 7.835938zm0 0"/><path d="m169.089844 255.945312h-44.335938c-4.328125 0-7.835937-3.507812-7.835937-7.835937s3.507812-7.835937 7.835937-7.835937h44.335938c4.328125 0 7.835937 3.507812 7.835937 7.835937s-3.507812 7.835937-7.835937 7.835937zm0 0"/><path d="m169.089844 214.160156h-44.335938c-4.328125 0-7.835937-3.507812-7.835937-7.835937s3.507812-7.835938 7.835937-7.835938h44.335938c4.328125 0 7.835937 3.507813 7.835937 7.835938s-3.507812 7.835937-7.835937 7.835937zm0 0"/><path d="m169.089844 172.367188h-44.335938c-4.328125 0-7.835937-3.511719-7.835937-7.839844s3.507812-7.835938 7.835937-7.835938h44.335938c4.328125 0 7.835937 3.507813 7.835937 7.835938s-3.507812 7.839844-7.835937 7.839844zm0 0"/><path d="m169.089844 130.570312h-44.335938c-4.328125 0-7.835937-3.507812-7.835937-7.835937s3.507812-7.839844 7.835937-7.839844h44.335938c4.328125 0 7.835937 3.511719 7.835937 7.839844s-3.507812 7.835937-7.835937 7.835937zm0 0"/><path d="m93.40625 88.773438h-44.34375c-4.332031 0-7.839844-3.507813-7.839844-7.835938s3.507813-7.835938 7.839844-7.835938h44.34375c4.332031 0 7.839844 3.507813 7.839844 7.835938s-3.507813 7.835938-7.839844 7.835938zm0 0"/><path d="m93.40625 339.539062h-44.34375c-4.332031 0-7.839844-3.507812-7.839844-7.835937s3.507813-7.839844 7.839844-7.839844h44.34375c4.332031 0 7.839844 3.511719 7.839844 7.839844s-3.507813 7.835937-7.839844 7.835937zm0 0"/><path d="m93.40625 276.847656h-44.34375c-4.332031 0-7.839844-3.507812-7.839844-7.835937s3.507813-7.835938 7.839844-7.835938h44.34375c4.332031 0 7.839844 3.507813 7.839844 7.835938s-3.507813 7.835937-7.839844 7.835937zm0 0"/><path d="m93.40625 214.15625h-44.34375c-4.332031 0-7.839844-3.507812-7.839844-7.835938 0-4.328124 3.507813-7.835937 7.839844-7.835937h44.34375c4.332031 0 7.839844 3.507813 7.839844 7.835937 0 4.328126-3.507813 7.835938-7.839844 7.835938zm0 0"/><path d="m93.40625 151.464844h-44.34375c-4.332031 0-7.839844-3.507813-7.839844-7.835938s3.507813-7.839844 7.839844-7.839844h44.34375c4.332031 0 7.839844 3.511719 7.839844 7.839844s-3.507813 7.835938-7.839844 7.835938zm0 0"/></g><path d="m151.398438 406.378906c0 23.375-18.941407 42.320313-42.316407 42.320313s-42.328125-18.945313-42.328125-42.320313c0-17.835937 11.03125-33.078125 26.652344-39.316406v-305.539062c0-8.652344 7.011719-15.675782 15.675781-15.675782 8.652344 0 15.671875 7.023438 15.671875 15.675782v305.539062c15.613282 6.238281 26.644532 21.480469 26.644532 39.316406zm0 0" fill="#ff7694"/><path d="m124.753906 61.523438v168.304687h-31.347656v-168.304687c0-8.652344 7.011719-15.675782 15.675781-15.675782 8.652344 0 15.671875 7.023438 15.671875 15.675782zm0 0" fill="#fff"/></svg>