<svg height="512pt" viewBox="0 -33 512 511" width="512pt" xmlns="http://www.w3.org/2000/svg"><path d="m34.792969 324.988281 37.386719-131.324219 72.695312 12.464844 72.699219-205.628906 76.847656 22.847656 49.851563 128.777344 39.464843-18.695312 33.230469 87.238281h35.3125l21.808594 104.320312" fill="#d3ddea"/><path d="m383.738281 133.429688 33.234375 87.238281-45.175781 45.175781-107.488281 17.136719 79.964844-130.855469zm0 0" fill="#84abc1"/><path d="m144.878906 206.128906-21.207031 118.859375h-88.878906l37.386719-131.324219zm0 0" fill="#84abc1"/><path d="m452.28125 220.667969 21.808594 104.320312h-75.554688l-26.742187-59.144531 45.175781-45.175781zm0 0" fill="#e6ecf4"/><path d="m294.425781 23.347656-52.964843 101.351563-23.886719-124.199219zm0 0" fill="#d3ddea"/><path d="m294.421875 23.347656 49.851563 128.777344-79.96875 130.855469-22.847657-158.28125zm0 0" fill="#e6ecf4"/><g fill="#84abc1"><path d="m264.308594 282.980469-119.429688-76.851563 11.503906-32.535156 10.074219-28.511719 51.117188-144.582031 23.886719 124.199219zm0 0"/><path d="m7.789062 332.964844h496.421876c4.300781 0 7.789062-3.488282 7.789062-7.789063s-3.488281-7.789062-7.789062-7.789062h-496.421876c-4.300781 0-7.789062 3.488281-7.789062 7.789062s3.488281 7.789063 7.789062 7.789063zm0 0"/><path d="m34.679688 370.34375h98.136718c4.300782 0 7.789063-3.488281 7.789063-7.789062 0-4.300782-3.488281-7.789063-7.789063-7.789063h-98.136718c-4.300782 0-7.789063 3.488281-7.789063 7.789063 0 4.300781 3.488281 7.789062 7.789063 7.789062zm0 0"/><path d="m163.972656 370.34375h313.347656c4.300782 0 7.789063-3.488281 7.789063-7.789062 0-4.300782-3.488281-7.789063-7.789063-7.789063h-313.347656c-4.300781 0-7.789062 3.488281-7.789062 7.789063 0 4.300781 3.488281 7.789062 7.789062 7.789062zm0 0"/><path d="m62.71875 407.730469h272.601562c4.300782 0 7.789063-3.488281 7.789063-7.789063 0-4.300781-3.488281-7.789062-7.789063-7.789062h-272.601562c-4.300781 0-7.789062 3.488281-7.789062 7.789062 0 4.300782 3.488281 7.789063 7.789062 7.789063zm0 0"/><path d="m366.476562 407.730469h82.804688c4.300781 0 7.789062-3.488281 7.789062-7.789063 0-4.300781-3.488281-7.789062-7.789062-7.789062h-82.804688c-4.300781 0-7.789062 3.488281-7.789062 7.789062 0 4.300782 3.488281 7.789063 7.789062 7.789063zm0 0"/><path d="m84.527344 445.113281h342.945312c4.300782 0 7.789063-3.488281 7.789063-7.789062s-3.488281-7.789063-7.789063-7.789063h-342.945312c-4.300782 0-7.789063 3.488282-7.789063 7.789063s3.488281 7.789062 7.789063 7.789062zm0 0"/></g><path d="m383.738281 133.429688-11.945312 132.414062 45.175781-45.175781zm0 0" fill="#d3ddea"/><path d="m371.792969 265.84375 80.488281-45.175781h-35.3125zm0 0" fill="#84abc1"/></svg>