<svg height="512pt" viewBox="0 -43 512.00012 512" width="512pt" xmlns="http://www.w3.org/2000/svg"><path d="m398.148438 213.480469c0-18.140625 32.863281-40.351563 28.394531-57.078125-4.628907-17.3125-44.328125-20.101563-53.097657-35.253906-8.894531-15.375 8.445313-51.125-4.03125-63.605469-12.476562-12.472657-48.230468 4.863281-63.601562-4.03125-15.15625-8.765625-17.945312-48.464844-35.253906-53.09375-16.730469-4.472657-38.941406 28.394531-57.078125 28.394531-18.140625 0-40.351563-32.867188-57.082031-28.394531-17.308594 4.628906-20.097657 44.328125-35.253907 53.09375-15.371093 8.894531-51.125-8.441407-63.601562 4.035156-12.476563 12.476563 4.863281 48.226563-4.03125 63.601563-8.765625 15.152343-48.46875 17.941406-53.09375 35.253906-4.472657 16.726562 28.394531 38.9375 28.394531 57.078125s-32.867188 40.351562-28.394531 57.078125c4.625 17.3125 44.328125 20.101562 53.09375 35.253906 8.894531 15.375-8.441407 51.125 4.035156 63.601562 12.476563 12.476563 48.226563-4.863281 63.601563 4.03125 15.15625 8.769532 17.941406 48.46875 35.253906 53.097657 16.726562 4.46875 38.9375-28.394531 57.078125-28.394531s40.351562 32.863281 57.078125 28.394531c17.3125-4.628907 20.101562-44.328125 35.253906-53.097657 15.375-8.894531 51.125 8.445313 63.601562-4.03125 12.476563-12.476562-4.863281-48.226562 4.03125-63.601562 8.769532-15.152344 48.46875-17.941406 53.097657-35.25 4.46875-16.730469-28.394531-38.941406-28.394531-57.082031zm0 0" fill="#ffee8c"/><path d="m356.042969 213.480469c0 72.007812-53.386719 131.546875-122.746094 141.191406-6.472656.90625-13.085937 1.367187-19.816406 1.367187-78.734375 0-142.566407-63.824218-142.566407-142.558593 0-78.738281 63.835938-142.5625 142.566407-142.5625 6.730469 0 13.34375.460937 19.816406 1.367187 69.359375 9.648438 122.746094 69.1875 122.746094 141.195313zm0 0" fill="#f28f44"/><path d="m356.042969 213.480469c0 51.335937-27.136719 96.328125-67.847657 121.414062-16.394531 10.125-34.980468 17.011719-54.898437 19.78125-69.359375-9.65625-122.742187-69.191406-122.742187-141.195312 0-72.003907 53.382812-131.542969 122.742187-141.199219 19.917969 2.769531 38.503906 9.65625 54.898437 19.78125 40.710938 25.085938 67.847657 70.082031 67.847657 121.417969zm0 0" fill="#ffd073"/><path d="m356.042969 213.480469c0 51.335937-27.136719 96.328125-67.847657 121.414062-46.988281-20.257812-79.882812-66.996093-79.882812-121.414062s32.894531-101.15625 79.882812-121.417969c40.710938 25.085938 67.847657 70.082031 67.847657 121.417969zm0 0" fill="#f28f44"/><path d="m512 213.480469c0 66.761719-49.496094 121.960937-113.804688 130.90625-6 .839843-12.132812 1.265625-18.367187 1.265625-73 0-132.183594-59.175782-132.183594-132.171875 0-72.996094 59.183594-132.171875 132.183594-132.171875 6.234375 0 12.367187.425781 18.367187 1.265625 64.308594 8.941406 113.804688 64.144531 113.804688 130.90625zm0 0" fill="#84abc1"/><path d="m350.261719 342.324219c3.675781.847656 7.40625 1.539062 11.191406 2.058593 5.996094.835938 12.128906 1.265626 18.367187 1.265626 72.996094 0 132.179688-59.171876 132.179688-132.167969 0-72.996094-59.183594-132.171875-132.179688-132.171875-6.238281 0-12.371093.429687-18.367187 1.265625-3.785156.523437-7.515625 1.210937-11.191406 2.058593 58.765625 13.425782 102.609375 66.015626 102.609375 128.847657 0 62.828125-43.84375 115.417969-102.609375 128.84375zm0 0" fill="#4d87a1"/><g fill="#a3c4d3"><path d="m457.667969 186.59375c0 17.890625-14.503907 32.390625-32.390625 32.390625-3.78125 0-7.417969-.648437-10.792969-1.847656 12.578125-4.453125 21.585937-16.445313 21.585937-30.542969 0-14.09375-9.007812-26.089844-21.585937-30.542969 3.375-1.199219 7.011719-1.847656 10.792969-1.847656 17.886718 0 32.390625 14.503906 32.390625 32.390625zm0 0"/><path d="m338.550781 244.0625c-2.714843 0-5.304687.546875-7.660156 1.535156 7.15625 3 12.1875 10.070313 12.1875 18.316406 0 8.25-5.03125 15.320313-12.1875 18.316407 2.355469.988281 4.945313 1.539062 7.660156 1.539062 10.964844 0 19.855469-8.890625 19.855469-19.855469 0-10.964843-8.890625-19.851562-19.855469-19.851562zm0 0"/><path d="m333.324219 190.25c-7.03125 0-10.507813-9.03125-5.183594-13.703125 2.382813-2.089844 5.867187-2.539063 8.707031-1.128906 3.027344 1.507812 4.769532 4.957031 4.203125 8.292969-.628906 3.71875-3.941406 6.539062-7.726562 6.539062zm0 0"/><path d="m426.542969 278.398438c-6.851563 0-10.347657-8.539063-5.539063-13.375 2.496094-2.511719 6.523438-3.007813 9.5625-1.183594 2.679688 1.605468 4.183594 4.761718 3.726563 7.851562-.5625 3.792969-3.90625 6.707032-7.75 6.707032zm0 0"/></g><path d="m136.09375 180.144531c-4.332031 0-7.839844-3.507812-7.839844-7.835937v-10.707032c0-4.328124 3.507813-7.835937 7.839844-7.835937 4.328125 0 7.835938 3.507813 7.835938 7.835937v10.707032c0 4.328125-3.507813 7.835937-7.835938 7.835937zm0 0" fill="#cc9236"/><path d="m210.953125 180.144531c-4.328125 0-7.835937-3.507812-7.835937-7.835937v-10.707032c0-4.328124 3.507812-7.835937 7.835937-7.835937 4.332031 0 7.839844 3.507813 7.839844 7.835937v10.707032c0 4.328125-3.511719 7.835937-7.839844 7.835937zm0 0" fill="#cc9236"/><path d="m190.007812 239.03125h-25.945312c-4.328125 0-7.835938-3.511719-7.835938-7.839844 0-4.324218 3.507813-7.835937 7.835938-7.835937h25.945312c4.332032 0 7.839844 3.511719 7.839844 7.835937 0 4.328125-3.507812 7.839844-7.839844 7.839844zm0 0" fill="#cc9236"/></svg>