<svg height="512pt" viewBox="0 -1 512 511" width="512pt" xmlns="http://www.w3.org/2000/svg"><path d="m409.390625 179.027344c0-15.171875 27.484375-33.746094 23.742187-47.734375-3.867187-14.476563-37.066406-16.808594-44.402343-29.484375-7.4375-12.855469 7.0625-42.753906-3.371094-53.1875s-40.332031 4.066406-53.1875-3.371094c-12.671875-7.332031-15.003906-40.53125-29.480469-44.398438-13.988281-3.742187-32.566406 23.742188-47.734375 23.742188s-33.742187-27.484375-47.734375-23.742188c-14.472656 3.867188-16.808594 37.066407-29.480468 44.402344-12.855469 7.4375-42.753907-7.0625-53.1875 3.371094-10.433594 10.433594 4.066406 40.328125-3.371094 53.1875-7.335938 12.671875-40.535156 15.003906-44.402344 29.480469-3.738281 13.988281 23.746094 32.5625 23.746094 47.734375 0 15.167968-27.484375 33.742187-23.746094 47.734375 3.871094 14.472656 37.070312 16.804687 44.402344 29.480469 7.4375 12.855468-7.0625 42.753906 3.371094 53.1875 10.433593 10.433593 40.332031-4.066407 53.1875 3.371093 12.675781 7.332031 15.007812 40.535157 29.480468 44.402344 13.992188 3.738281 32.566406-23.746094 47.734375-23.746094 15.171875 0 33.746094 27.484375 47.734375 23.746094 14.476563-3.871094 16.808594-37.070313 29.484375-44.402344 12.855469-7.4375 42.753907 7.0625 53.1875-3.371093 10.433594-10.433594-4.066406-40.332032 3.371094-53.1875 7.332031-12.675782 40.535156-15.007813 44.402344-29.480469 3.738281-13.992188-23.746094-32.566407-23.746094-47.734375zm0 0" fill="#ffee8c"/><path d="m374.179688 179.023438c0 60.21875-44.644532 110.011718-102.648438 118.074218-5.414062.757813-10.945312 1.144532-16.570312 1.144532-65.84375 0-119.226563-53.375-119.226563-119.21875s53.382813-119.21875 119.226563-119.21875c5.625 0 11.15625.386718 16.570312 1.144531 58 8.066406 102.648438 57.859375 102.648438 118.074219zm0 0" fill="#f28f44"/><path d="m374.179688 179.023438c0 60.21875-44.644532 110.011718-102.648438 118.074218-58.003906-8.0625-102.648438-57.855468-102.648438-118.074218 0-60.214844 44.644532-110.007813 102.648438-118.074219 58 8.066406 102.648438 57.859375 102.648438 118.074219zm0 0" fill="#ffd073"/><g fill="#cc9236"><path d="m221.746094 161.316406c-1.597656 0-3.195313-.609375-4.414063-1.828125-7.660156-7.660156-20.121093-7.660156-27.78125 0-2.441406 2.4375-6.394531 2.4375-8.832031 0-2.4375-2.441406-2.4375-6.394531 0-8.832031 12.53125-12.527344 32.917969-12.527344 45.445312 0 2.4375 2.4375 2.4375 6.390625 0 8.832031-1.21875 1.21875-2.820312 1.828125-4.417968 1.828125zm0 0"/><path d="m288.167969 161.316406c-1.597657 0-3.195313-.609375-4.417969-1.828125-2.4375-2.441406-2.4375-6.394531.003906-8.832031 6.066406-6.070312 14.136719-9.410156 22.71875-9.410156 8.585938 0 16.65625 3.339844 22.722656 9.410156 2.4375 2.4375 2.4375 6.390625 0 8.832031-2.4375 2.4375-6.394531 2.4375-8.828124 0-3.710938-3.710937-8.644532-5.753906-13.894532-5.753906-5.246094 0-10.179687 2.042969-13.890625 5.753906-1.21875 1.21875-2.816406 1.828125-4.414062 1.828125zm0 0"/><path d="m254.957031 217.867188c-12.074219 0-23.425781-4.703126-31.964843-13.238282-2.4375-2.4375-2.4375-6.394531 0-8.832031s6.394531-2.4375 8.828124 0c6.179688 6.179687 14.398438 9.585937 23.136719 9.585937s16.953125-3.40625 23.132813-9.585937c2.4375-2.4375 6.394531-2.4375 8.832031 0s2.4375 6.394531 0 8.832031c-8.535156 8.539063-19.890625 13.238282-31.964844 13.238282zm0 0"/></g><path d="m446.171875 510.535156c-19.121094 0-28.796875-9.476562-37.332031-17.839844-7.632813-7.472656-13.660156-13.378906-26.410156-13.378906s-18.777344 5.90625-26.410157 13.378906c-8.535156 8.363282-18.210937 17.839844-37.332031 17.839844s-28.796875-9.476562-37.332031-17.839844c-7.628907-7.472656-13.65625-13.378906-26.40625-13.378906s-18.777344 5.90625-26.40625 13.378906c-8.535157 8.363282-18.210938 17.839844-37.328125 17.839844-19.121094 0-28.796875-9.476562-37.332032-17.839844-7.632812-7.472656-13.660156-13.378906-26.40625-13.378906-12.75 0-18.777343 5.90625-26.410156 13.378906-8.535156 8.363282-18.210937 17.839844-37.332031 17.839844-19.117187 0-28.792969-9.476562-37.328125-17.839844-7.632812-7.472656-13.660156-13.378906-26.40625-13.378906v-15.609375c19.121094 0 28.792969 9.476563 37.328125 17.839844 7.632813 7.472656 13.660156 13.378906 26.40625 13.378906 12.75 0 18.777344-5.90625 26.410156-13.378906 8.535157-8.363281 18.210938-17.839844 37.332031-17.839844 19.117188 0 28.792969 9.476563 37.328126 17.839844 7.632812 7.472656 13.660156 13.378906 26.410156 13.378906 12.746094 0 18.773437-5.90625 26.40625-13.378906 8.53125-8.363281 18.207031-17.839844 37.328125-17.839844 19.121093 0 28.792969 9.476563 37.332031 17.839844 7.628906 7.472656 13.65625 13.378906 26.40625 13.378906s18.777344-5.90625 26.410156-13.378906c8.535156-8.363281 18.207032-17.839844 37.332032-17.839844 19.121093 0 28.796874 9.476563 37.332031 17.839844 7.632812 7.472656 13.660156 13.378906 26.410156 13.378906s18.777344-5.90625 26.410156-13.378906c8.535157-8.363281 18.210938-17.839844 37.332031-17.839844v15.609375c-12.75 0-18.777343 5.90625-26.410156 13.378906-8.535156 8.363282-18.210937 17.839844-37.332031 17.839844zm0 0" fill="#84abc1"/><path d="m446.171875 452.96875c-19.121094 0-28.796875-9.476562-37.332031-17.839844-7.632813-7.472656-13.660156-13.378906-26.410156-13.378906s-18.777344 5.90625-26.410157 13.378906c-8.535156 8.363282-18.210937 17.839844-37.332031 17.839844s-28.796875-9.476562-37.332031-17.839844c-7.628907-7.472656-13.65625-13.378906-26.40625-13.378906s-18.777344 5.90625-26.40625 13.378906c-8.535157 8.363282-18.210938 17.839844-37.328125 17.839844-19.121094 0-28.796875-9.476562-37.332032-17.839844-7.632812-7.472656-13.660156-13.378906-26.40625-13.378906-12.75 0-18.777343 5.90625-26.410156 13.378906-8.535156 8.363282-18.210937 17.839844-37.332031 17.839844-19.117187 0-28.792969-9.476562-37.328125-17.839844-7.632812-7.472656-13.660156-13.378906-26.40625-13.378906v-15.609375c19.121094 0 28.792969 9.476563 37.328125 17.839844 7.632813 7.472656 13.660156 13.378906 26.40625 13.378906 12.75 0 18.777344-5.90625 26.410156-13.378906 8.535157-8.363281 18.210938-17.839844 37.332031-17.839844 19.117188 0 28.792969 9.476563 37.328126 17.839844 7.632812 7.472656 13.660156 13.378906 26.410156 13.378906 12.746094 0 18.773437-5.90625 26.40625-13.378906 8.53125-8.363281 18.207031-17.839844 37.328125-17.839844 19.121093 0 28.792969 9.476563 37.332031 17.839844 7.628906 7.472656 13.65625 13.378906 26.40625 13.378906s18.777344-5.90625 26.410156-13.378906c8.535156-8.363281 18.207032-17.839844 37.332032-17.839844 19.121093 0 28.796874 9.476563 37.332031 17.839844 7.632812 7.472656 13.660156 13.378906 26.410156 13.378906s18.777344-5.90625 26.410156-13.378906c8.535157-8.363281 18.210938-17.839844 37.332031-17.839844v15.609375c-12.75 0-18.777343 5.90625-26.410156 13.378906-8.535156 8.363282-18.210937 17.839844-37.332031 17.839844zm0 0" fill="#84abc1"/><path d="m438.113281 381.914062c-4.308593 0-7.804687-3.492187-7.804687-7.804687 0-8.9375-11.4375-16.492187-24.976563-16.492187-4.308593 0-7.804687-3.492188-7.804687-7.804688 0-4.308594 3.496094-7.804688 7.804687-7.804688 13.449219 0 25.394531 5.203126 32.78125 13.195313 7.390625-7.992187 19.332031-13.195313 32.78125-13.195313 4.3125 0 7.804688 3.496094 7.804688 7.804688 0 4.3125-3.492188 7.804688-7.804688 7.804688-13.539062 0-24.976562 7.554687-24.976562 16.492187 0 4.3125-3.492188 7.804687-7.804688 7.804687zm0 0" fill="#4d87a1"/><path d="m471.414062 329.464844c-4.3125 0-7.804687-3.492188-7.804687-7.804688 0-8.941406-11.4375-16.492187-24.976563-16.492187-4.308593 0-7.804687-3.492188-7.804687-7.804688 0-4.308593 3.496094-7.804687 7.804687-7.804687 13.449219 0 25.390626 5.203125 32.78125 13.195312 7.390626-7.992187 19.332032-13.195312 32.78125-13.195312 4.3125 0 7.804688 3.496094 7.804688 7.804687 0 4.3125-3.492188 7.804688-7.804688 7.804688-13.539062 0-24.976562 7.554687-24.976562 16.492187 0 4.3125-3.492188 7.804688-7.804688 7.804688zm0 0" fill="#4d87a1"/></svg>