<svg height="512pt" viewBox="-1 0 512 512.00078" width="512pt" xmlns="http://www.w3.org/2000/svg"><path d="m398.925781 182.828125c0-15.535156 28.148438-34.554687 24.316407-48.882813-3.960938-14.824218-37.960938-17.214843-45.46875-30.191406-7.621094-13.167968 7.230468-43.785156-3.457032-54.472656-10.683594-10.683594-41.300781 4.167969-54.46875-3.449219-12.976562-7.511719-15.367187-41.511719-30.191406-45.472656-14.324219-3.832031-33.347656 24.316406-48.882812 24.316406-15.535157 0-34.558594-28.148437-48.886719-24.316406-14.824219 3.960937-17.210938 37.960937-30.191407 45.472656-13.164062 7.617188-43.785156-7.234375-54.46875 3.453125-10.6875 10.683594 4.164063 41.300782-3.453124 54.46875-7.507813 12.980469-41.507813 15.367188-45.472657 30.191406-3.828125 14.324219 24.316407 33.347657 24.316407 48.882813s-28.144532 34.558594-24.316407 48.886719c3.960938 14.824218 37.964844 17.210937 45.472657 30.191406 7.617187 13.164062-7.230469 43.785156 3.453124 54.46875 10.6875 10.6875 41.304688-4.164062 54.46875 3.453125 12.980469 7.507813 15.367188 41.507813 30.191407 45.472656 14.328125 3.828125 33.351562-24.316406 48.886719-24.316406 15.535156 0 34.554687 28.144531 48.882812 24.316406 14.824219-3.960937 17.214844-37.960937 30.191406-45.472656 13.167969-7.617187 43.785156 7.230469 54.472656-3.453125 10.683594-10.6875-4.167968-41.304688 3.453126-54.46875 7.507812-12.980469 41.507812-15.367188 45.46875-30.191406 3.832031-14.328125-24.316407-33.351563-24.316407-48.886719zm0 0" fill="#ffee8c"/><path d="m362.863281 182.828125c0 62.527344-46.992187 114.078125-107.59375 121.242187-4.753906.566407-9.589843.855469-14.496093.855469-67.429688 0-122.097657-54.667969-122.097657-122.097656s54.667969-122.089844 122.097657-122.089844c4.90625 0 9.746093.289063 14.496093.855469 60.601563 7.164062 107.59375 58.707031 107.59375 121.234375zm0 0" fill="#f28f44"/><path d="m362.863281 182.828125c0 62.527344-46.992187 114.078125-107.59375 121.242187-60.601562-7.164062-107.605469-58.714843-107.605469-121.242187s47.003907-114.070313 107.605469-121.234375c60.601563 7.164062 107.59375 58.707031 107.59375 121.234375zm0 0" fill="#ffd073"/><path d="m452.511719 351.347656c0 23.691406-19.207031 42.894532-42.90625 42.894532h-155.246094c-31.5 0-57.042969-25.535157-57.042969-57.042969 0-31.5 25.542969-57.042969 57.042969-57.042969 2.824219 0 5.605469.21875 8.328125.613281 12.882812-25.582031 39.375-43.136719 69.980469-43.136719 37.03125 0 68.058593 25.710938 76.207031 60.253907.816406 3.445312 1.402344 6.980469 1.742188 10.582031v.007812c23.21875.53125 41.894531 19.519532 41.894531 42.871094zm0 0" fill="#d3ddea"/><path d="m359.882812 242.5c-8.476562-3.148438-17.648437-4.867188-27.214843-4.867188-30.605469 0-57.089844 17.554688-69.984375 43.128907v.007812c-2.722656-.394531-5.5-.609375-8.324219-.609375-31.511719 0-57.042969 25.539063-57.042969 57.042969 0 31.507813 25.53125 57.042969 57.042969 57.042969h27.570313c-28.394532 0-51.398438-23.015625-51.398438-51.398438 0-25.1875 18.117188-46.148437 42.039062-50.542968 2.367188-.445313 4.792969-.71875 7.265626-.816407.691406-.023437 1.390624-.039062 2.09375-.039062 9.226562 0 17.890624 2.429687 25.371093 6.699219-1.039062-7.242188-8.523437-14.023438-19.5625-19.492188 6.0625-20.496094 26.6875-39.503906 72.144531-36.15625zm0 0" fill="#84abc1"/><g fill="#cc9236"><path d="m206.761719 164.546875c-1.597657 0-3.199219-.609375-4.417969-1.828125-7.902344-7.902344-20.757812-7.902344-28.65625 0-2.441406 2.441406-6.398438 2.441406-8.839844 0s-2.441406-6.398438 0-8.839844c12.773438-12.773437 33.558594-12.773437 46.335938 0 2.441406 2.441406 2.441406 6.398438 0 8.839844-1.222656 1.21875-2.820313 1.828125-4.421875 1.828125zm0 0"/><path d="m312.277344 164.546875c-1.597656 0-3.199219-.609375-4.417969-1.828125-7.902344-7.902344-20.757813-7.902344-28.65625 0-2.441406 2.441406-6.398437 2.441406-8.839844 0-2.441406-2.441406-2.441406-6.398438 0-8.839844 12.773438-12.773437 33.5625-12.773437 46.335938 0 2.441406 2.441406 2.441406 6.398438 0 8.839844-1.222657 1.21875-2.820313 1.828125-4.421875 1.828125zm0 0"/><path d="m240.773438 214.765625c-12.625 0-25.253907-4.808594-34.863282-14.417969-2.441406-2.441406-2.441406-6.398437 0-8.839844 2.4375-2.441406 6.398438-2.441406 8.835938 0 14.351562 14.347657 37.703125 14.347657 52.050781 0 2.441406-2.441406 6.398437-2.441406 8.839844 0 2.441406 2.441407 2.441406 6.398438 0 8.839844-9.609375 9.609375-22.238281 14.417969-34.863281 14.417969zm0 0"/></g><path d="m446.644531 512c-19.140625 0-28.828125-9.488281-37.371093-17.855469-7.640626-7.484375-13.675782-13.394531-26.4375-13.394531-12.765626 0-18.796876 5.910156-26.4375 13.394531-8.542969 8.367188-18.230469 17.855469-37.371094 17.855469s-28.824219-9.488281-37.371094-17.855469c-7.640625-7.484375-13.671875-13.394531-26.4375-13.394531-12.757812 0-18.792969 5.910156-26.433594 13.394531-8.542968 8.367188-18.226562 17.855469-37.367187 17.855469s-28.828125-9.488281-37.371094-17.855469c-7.640625-7.484375-13.671875-13.394531-26.4375-13.394531-12.761719 0-18.792969 5.910156-26.433594 13.394531-8.546875 8.367188-18.230469 17.855469-37.371093 17.855469-19.140626 0-28.824219-9.488281-37.371094-17.859375-7.636719-7.480469-13.671875-13.390625-26.433594-13.390625v-15.628906c19.140625 0 28.824219 9.488281 37.371094 17.859375 7.636718 7.484375 13.671875 13.394531 26.433594 13.394531 12.761718 0 18.796874-5.910156 26.433593-13.394531 8.546875-8.371094 18.230469-17.859375 37.371094-17.859375s28.824219 9.488281 37.371094 17.859375c7.640625 7.484375 13.671875 13.394531 26.433593 13.394531 12.761719 0 18.796876-5.910156 26.4375-13.394531 8.542969-8.371094 18.226563-17.859375 37.367188-17.859375s28.824219 9.488281 37.371094 17.859375c7.640625 7.484375 13.671875 13.394531 26.4375 13.394531 12.761718 0 18.796875-5.910156 26.433594-13.394531 8.546874-8.371094 18.230468-17.859375 37.371093-17.859375 19.144531 0 28.828125 9.488281 37.375 17.859375 7.640625 7.484375 13.675781 13.394531 26.4375 13.394531s18.796875-5.910156 26.4375-13.394531c8.546875-8.371094 18.230469-17.859375 37.375-17.859375v15.628906c-12.765625 0-18.800781 5.910156-26.441406 13.394531-8.542969 8.367188-18.230469 17.855469-37.371094 17.855469zm0 0" fill="#84abc1"/><path d="m446.644531 462.707031c-19.140625 0-28.828125-9.488281-37.371093-17.855469-7.640626-7.484374-13.675782-13.394531-26.4375-13.394531-12.765626 0-18.796876 5.910157-26.4375 13.394531-8.542969 8.367188-18.230469 17.855469-37.371094 17.855469s-28.824219-9.488281-37.371094-17.855469c-7.640625-7.484374-13.671875-13.394531-26.4375-13.394531-12.757812 0-18.792969 5.910157-26.433594 13.394531-8.542968 8.367188-18.226562 17.855469-37.367187 17.855469s-28.828125-9.488281-37.371094-17.855469c-7.640625-7.484374-13.671875-13.394531-26.4375-13.394531-12.761719 0-18.792969 5.910157-26.433594 13.394531-8.546875 8.367188-18.230469 17.855469-37.371093 17.855469-19.140626 0-28.824219-9.488281-37.371094-17.859375-7.636719-7.480468-13.671875-13.390625-26.433594-13.390625v-15.628906c19.140625 0 28.824219 9.488281 37.371094 17.859375 7.636718 7.484375 13.671875 13.394531 26.433594 13.394531 12.761718 0 18.796874-5.910156 26.433593-13.394531 8.546875-8.371094 18.230469-17.859375 37.371094-17.859375s28.824219 9.488281 37.371094 17.859375c7.640625 7.484375 13.671875 13.394531 26.433593 13.394531 12.761719 0 18.796876-5.910156 26.4375-13.394531 8.542969-8.371094 18.226563-17.859375 37.367188-17.859375s28.824219 9.488281 37.371094 17.859375c7.640625 7.484375 13.671875 13.394531 26.4375 13.394531 12.761718 0 18.796875-5.910156 26.433594-13.394531 8.546874-8.371094 18.230468-17.859375 37.371093-17.859375 19.144531 0 28.828125 9.488281 37.375 17.859375 7.640625 7.484375 13.675781 13.394531 26.4375 13.394531s18.796875-5.910156 26.4375-13.394531c8.546875-8.371094 18.230469-17.859375 37.375-17.859375v15.628906c-12.765625 0-18.800781 5.910157-26.441406 13.394531-8.542969 8.367188-18.230469 17.855469-37.371094 17.855469zm0 0" fill="#84abc1"/></svg>