<svg height="512pt" viewBox="0 -21 512 512" width="512pt" xmlns="http://www.w3.org/2000/svg"><path d="m467.011719 219.820312c0-18.675781 33.839843-41.546874 29.238281-58.773437-4.765625-17.824219-45.644531-20.695313-54.675781-36.300781-9.15625-15.832032 8.699219-52.644532-4.148438-65.492188-12.847656-12.847656-49.660156 5.007813-65.492187-4.152344-15.605469-9.027343-18.476563-49.90625-36.300782-54.671874-17.226562-4.601563-40.097656 29.238281-58.777343 29.238281-18.675781 0-41.546875-33.839844-58.773438-29.238281-17.824219 4.765624-20.695312 45.644531-36.300781 54.671874-15.832031 9.160157-52.644531-8.695312-65.492188 4.152344-12.847656 12.847656 5.007813 49.660156-4.152343 65.492188-9.027344 15.605468-49.90625 18.476562-54.671875 36.300781-4.601563 17.226563 29.238281 40.097656 29.238281 58.773437 0 18.679688-33.839844 41.550782-29.238281 58.777344 4.765625 17.824219 45.644531 20.695313 54.671875 36.300782 9.160156 15.828124-8.695313 52.644531 4.152343 65.492187 12.847657 12.84375 49.660157-5.007813 65.492188 4.148437 15.605469 9.03125 18.476562 49.910157 36.300781 54.671876 17.226563 4.605468 40.097657-29.234376 58.773438-29.234376 18.679687 0 41.550781 33.839844 58.777343 29.234376 17.824219-4.761719 20.695313-45.640626 36.300782-54.671876 15.832031-9.15625 52.644531 8.695313 65.492187-4.148437 12.847657-12.847656-5.007812-49.664063 4.148438-65.492187 9.03125-15.605469 49.910156-18.476563 54.675781-36.300782 4.601562-17.226562-29.238281-40.097656-29.238281-58.777344zm0 0" fill="#ffee8c"/><path d="m423.65625 219.820312c0 74.148438-54.972656 135.457032-126.394531 145.386719-6.667969.933594-13.476563 1.410157-20.402344 1.410157-81.074219 0-146.804687-65.722657-146.804687-146.796876 0-81.074218 65.730468-146.796874 146.804687-146.796874 6.925781 0 13.738281.476562 20.402344 1.410156 71.421875 9.933594 126.394531 71.242187 126.394531 145.386718zm0 0" fill="#f28f44"/><path d="m423.65625 219.820312c0 74.148438-54.972656 135.457032-126.394531 145.386719-71.417969-9.929687-126.394531-71.238281-126.394531-145.386719 0-74.148437 54.976562-135.453124 126.394531-145.386718 71.421875 9.933594 126.394531 71.242187 126.394531 145.386718zm0 0" fill="#ffd073"/><path d="m235.964844 197.988281c-1.960938 0-3.921875-.746093-5.417969-2.242187-4.574219-4.574219-10.652344-7.09375-17.121094-7.09375-6.472656 0-12.550781 2.519531-17.125 7.09375-2.996093 2.992187-7.84375 2.992187-10.835937 0-2.992188-2.992188-2.992188-7.84375 0-10.835938 15.417968-15.417968 40.503906-15.417968 55.917968 0 2.992188 2.992188 2.992188 7.84375 0 10.835938-1.496093 1.496094-3.457031 2.242187-5.417968 2.242187zm0 0" fill="#cc9236"/><path d="m362.832031 197.988281c-1.960937 0-3.921875-.746093-5.417969-2.242187-4.574218-4.574219-10.65625-7.09375-17.125-7.09375s-12.550781 2.519531-17.121093 7.09375c-2.996094 2.992187-7.84375 2.992187-10.835938 0-2.992187-2.992188-2.992187-7.84375 0-10.835938 15.414063-15.417968 40.5-15.417968 55.917969 0 2.992188 2.992188 2.992188 7.84375 0 10.835938-1.496094 1.496094-3.457031 2.242187-5.417969 2.242187zm0 0" fill="#cc9236"/><path d="m506.167969 396.664062c-3.605469-3.605468-8.582031-5.832031-14.089844-5.832031h-44.949219c-10.992187 0-19.910156-8.921875-19.910156-19.921875 0-5.507812-2.226562-10.480468-5.832031-14.089844-3.605469-3.605468-8.589844-5.832031-14.085938-5.832031h-118.378906c-11.003906 0-19.921875-8.917969-19.921875-19.917969 0-5.507812 2.226562-10.484374 5.832031-14.089843s8.59375-5.832031 14.089844-5.832031h162.5c11 0 19.917969-8.917969 19.917969-19.921876 0-11-8.917969-19.921874-19.917969-19.921874h-349.316406c-11.003907 0-19.921875 8.921874-19.921875 19.921874 0 5.507813 2.230468 10.480469 5.835937 14.089844 3.605469 3.605469 8.578125 5.832032 14.085938 5.832032h21.839843c11.003907 0 19.921876 8.917968 19.921876 19.921874 0 5.503907-2.226563 10.480469-5.832032 14.085938-3.605468 3.605469-8.582031 5.832031-14.089844 5.832031h-70.097656c-10.992187 0-19.910156 8.917969-19.910156 19.921875 0 5.503906 2.226562 10.480469 5.832031 14.085938 3.605469 3.605468 8.582031 5.835937 14.078125 5.835937h105.730469c11.003906 0 19.921875 8.917969 19.921875 19.917969 0 5.496094-2.226562 10.472656-5.832031 14.078125-3.609375 3.605469-8.582031 5.832031-14.089844 5.832031h-139.65625c-11.003906 0-19.921875 8.917969-19.921875 19.921875 0 5.496094 2.226562 10.480469 5.832031 14.085938s8.59375 5.835937 14.089844 5.835937h317.398437c11.003907 0 19.921876-8.917968 19.921876-19.921875 0-5.496093 2.226562-10.480469 5.832031-14.085937 3.609375-3.609375 8.59375-5.835938 14.089843-5.835938h114.914063c11.003906 0 19.921875-8.917968 19.921875-19.910156 0-5.503906-2.226562-10.480469-5.832031-14.085938zm-207.777344 32.476563h-53.777344c-5.496093 0-10.46875-2.226563-14.074219-5.832031-3.609374-3.609375-5.835937-8.582032-5.835937-14.089844 0-11 8.917969-19.917969 19.910156-19.917969h53.777344c5.503906 0 10.480469 2.226563 14.085937 5.832031 3.605469 3.605469 5.835938 8.582032 5.835938 14.085938 0 11-8.921875 19.921875-19.921875 19.921875zm0 0" fill="#d3ddea"/><path d="m276.855469 249.3125c-11.757813 0-23.511719-4.476562-32.460938-13.425781-2.996093-2.992188-2.996093-7.84375-.003906-10.835938 2.996094-2.992187 7.847656-2.992187 10.835937 0 11.929688 11.925781 31.328126 11.925781 43.257813 0 2.992187-2.992187 7.84375-2.992187 10.835937 0 2.992188 2.992188 2.992188 7.84375-.003906 10.835938-8.949218 8.949219-20.703125 13.425781-32.460937 13.425781zm0 0" fill="#cc9236"/></svg>