<svg height="512pt" viewBox="-84 0 512 512" width="512pt" xmlns="http://www.w3.org/2000/svg"><path d="m266.046875 22.976562c-24.375 14.109376-40.789063 40.449219-40.789063 70.640626 0 1.078124.019532 2.152343.0625 3.21875 1.992188 51.28125 79.464844 51.28125 81.457032 0 .039062-1.066407.0625-2.140626.0625-3.21875 0-30.191407-16.414063-56.53125-40.792969-70.640626zm0 0" fill="#84abc1"/><path d="m266.046875 135.296875c-19.859375 0-39.714844-12.832031-40.710937-38.460937-.039063-1.074219-.078126-2.148438-.078126-3.222657 0-30.1875 16.414063-56.53125 40.789063-70.636719-4.914063 14.105469-8.214844 40.449219-8.214844 70.636719 0 1.074219 0 2.148438.019531 3.222657.199219 25.628906 4.199219 38.460937 8.195313 38.460937zm0 0" fill="#4d87a1"/><path d="m316.847656 150.855469c-16.03125 9.277343-26.824218 26.597656-26.824218 46.453125 0 .707031.015624 1.414062.042968 2.117187 1.308594 33.71875 52.25 33.71875 53.5625 0 .027344-.703125.039063-1.410156.039063-2.117187 0-19.855469-10.792969-37.175782-26.820313-46.453125zm0 0" fill="#84abc1"/><path d="m316.847656 224.71875c-13.058594 0-26.117187-8.441406-26.769531-25.292969-.027344-.707031-.054687-1.414062-.054687-2.121093 0-19.847657 10.796874-37.171876 26.824218-46.449219-3.234375 9.277343-5.40625 26.601562-5.40625 46.449219 0 .707031 0 1.414062.015625 2.121093.128907 16.851563 2.757813 25.292969 5.390625 25.292969zm0 0" fill="#4d87a1"/><path d="m187.949219 296.042969v-227.078125c0-38.089844-30.875-68.964844-68.964844-68.964844-38.085937 0-68.960937 30.875-68.960937 68.964844v227.078125c-30.277344 21.570312-50.023438 56.964843-50.023438 96.972656 0 65.710937 53.273438 118.984375 118.984375 118.984375 65.714844 0 118.988281-53.273438 118.988281-118.984375 0-40.007813-19.746094-75.402344-50.023437-96.972656zm0 0" fill="#d3ddea"/><path d="m196.171875 393.015625c0 42.558594-34.617187 77.1875-77.1875 77.1875-42.558594 0-77.1875-34.628906-77.1875-77.1875 0-24.921875 12.144531-48.441406 32.476563-62.933594l17.542968-12.496093v-248.625c0-14.984376 12.183594-27.167969 27.167969-27.167969s27.167969 12.183593 27.167969 27.167969v248.625l17.542968 12.496093c20.34375 14.492188 32.476563 38.011719 32.476563 62.933594zm0 0" fill="#84abc1"/><path d="m118.984375 470.203125c-42.558594 0-77.1875-34.628906-77.1875-77.1875 0-24.921875 12.140625-48.441406 32.472656-62.933594l17.546875-12.496093v-248.625c0-14.984376 12.183594-27.167969 27.167969-27.167969-8.550781 0-10.285156 12.183593-10.285156 27.167969v248.625s-33.769531 26.464843-33.769531 75.429687c0 42.558594 19.769531 77.1875 44.054687 77.1875zm0 0" fill="#4d87a1"/><path d="m146.152344 68.960938v90.773437h-54.335938v-90.773437c0-14.984376 12.183594-27.167969 27.167969-27.167969s27.167969 12.183593 27.167969 27.167969zm0 0" fill="#fff"/><g fill="#84abc1"><path d="m91.816406 271.652344h54.335938v15.671875h-54.335938zm0 0"/><path d="m91.816406 211.773438h54.335938v15.671874h-54.335938zm0 0"/><path d="m91.816406 151.898438h54.335938v15.671874h-54.335938zm0 0"/><path d="m91.816406 92.019531h54.335938v15.675781h-54.335938zm0 0"/></g></svg>