<svg height="512pt" viewBox="-73 0 512 512" width="512pt" xmlns="http://www.w3.org/2000/svg"><path d="m354.644531 106.5625 11.140625-29.863281-28.992187-13.238281-13.238281-28.992188-29.863282 11.136719-29.867187-11.136719-13.238281 28.992188-28.992188 13.238281 11.136719 29.863281-11.136719 29.867188 28.992188 13.234374 13.238281 28.992188 29.867187-11.136719 29.863282 11.136719 13.238281-28.992188 28.992187-13.234374zm0 0" fill="#ffee8c"/><path d="m336.792969 106.5625c0 23.804688-19.296875 43.101562-43.101563 43.101562-23.808594 0-43.105468-19.296874-43.105468-43.101562s19.296874-43.101562 43.105468-43.101562c23.804688 0 43.101563 19.296874 43.101563 43.101562zm0 0" fill="#ffd073"/><path d="m187.949219 296.042969v-227.078125c0-38.089844-30.875-68.964844-68.964844-68.964844-38.085937 0-68.960937 30.875-68.960937 68.964844v227.078125c-30.277344 21.570312-50.023438 56.964843-50.023438 96.972656 0 65.710937 53.269531 118.984375 118.984375 118.984375s118.988281-53.273438 118.988281-118.984375c0-40.007813-19.746094-75.402344-50.023437-96.972656zm0 0" fill="#d3ddea"/><path d="m196.171875 393.015625c0 42.558594-34.617187 77.1875-77.1875 77.1875-42.558594 0-77.1875-34.628906-77.1875-77.1875 0-24.921875 12.144531-48.441406 32.476563-62.933594l17.542968-12.496093v-248.625c0-14.984376 12.183594-27.167969 27.167969-27.167969s27.167969 12.183593 27.167969 27.167969v248.625l17.542968 12.496093c20.34375 14.492188 32.476563 38.011719 32.476563 62.933594zm0 0" fill="#ff7694"/><path d="m118.984375 470.203125c-42.558594 0-77.1875-34.628906-77.1875-77.1875 0-24.921875 12.140625-48.441406 32.472656-62.933594l17.546875-12.496093v-248.625c0-14.984376 12.183594-27.167969 27.167969-27.167969-8.550781 0-10.285156 12.183593-10.285156 27.167969v248.625s-33.769531 26.464843-33.769531 75.429687c0 42.558594 19.769531 77.1875 44.054687 77.1875zm0 0" fill="#e53737"/><path d="m146.152344 68.960938v90.773437h-54.335938v-90.773437c0-14.984376 12.183594-27.167969 27.167969-27.167969s27.167969 12.183593 27.167969 27.167969zm0 0" fill="#fff"/><g fill="#84abc1"><path d="m91.816406 271.652344h54.335938v15.671875h-54.335938zm0 0"/><path d="m91.816406 211.773438h54.335938v15.671874h-54.335938zm0 0"/><path d="m91.816406 151.898438h54.335938v15.671874h-54.335938zm0 0"/><path d="m91.816406 92.019531h54.335938v15.675781h-54.335938zm0 0"/></g></svg>