<svg height="512pt" viewBox="-56 0 512 512" width="512pt" xmlns="http://www.w3.org/2000/svg"><path d="m400.84375 135.535156c0 15.902344-12.890625 28.792969-28.796875 28.792969h-104.207031c-21.144532 0-38.289063-17.140625-38.289063-38.289063 0-21.144531 17.144531-38.289062 38.289063-38.289062 1.894531 0 3.761718.144531 5.589844.410156 8.644531-17.171875 26.429687-28.953125 46.972656-28.953125 24.859375 0 45.683594 17.257813 51.152344 40.445313.546874 2.3125.941406 4.6875 1.167968 7.101562v.003906c15.585938.359376 28.121094 13.101563 28.121094 28.777344zm0 0" fill="#d3ddea"/><path d="m338.671875 62.472656c-5.691406-2.113281-11.851563-3.265625-18.269531-3.265625-20.546875 0-38.324219 11.785157-46.976563 28.949219v.007812c-1.824219-.265624-3.691406-.414062-5.589843-.414062-21.148438 0-38.289063 17.144531-38.289063 38.289062 0 21.152344 17.140625 38.289063 38.289063 38.289063h18.507812c-19.058594 0-34.5-15.445313-34.5-34.5 0-16.90625 12.164062-30.972656 28.21875-33.925781 1.589844-.296875 3.21875-.480469 4.878906-.546875.464844-.015625.933594-.023438 1.402344-.023438 6.195312 0 12.011719 1.628907 17.03125 4.496094-.695312-4.863281-5.722656-9.414063-13.128906-13.082031 4.066406-13.761719 17.910156-26.519532 48.425781-24.273438zm0 0" fill="#84abc1"/><path d="m187.949219 296.042969v-227.078125c0-38.089844-30.875-68.964844-68.964844-68.964844-38.085937 0-68.960937 30.875-68.960937 68.964844v227.078125c-30.277344 21.570312-50.023438 56.964843-50.023438 96.972656 0 65.710937 53.273438 118.984375 118.984375 118.984375 65.714844 0 118.988281-53.273438 118.988281-118.984375 0-40.007813-19.746094-75.402344-50.023437-96.972656zm0 0" fill="#d3ddea"/><path d="m196.171875 393.015625c0 42.558594-34.621094 77.1875-77.1875 77.1875-42.558594 0-77.1875-34.628906-77.1875-77.1875 0-24.921875 12.140625-48.441406 32.476563-62.933594l17.542968-12.496093v-248.625c0-14.984376 12.183594-27.167969 27.167969-27.167969s27.167969 12.183593 27.167969 27.167969v248.625l17.542968 12.496093c20.34375 14.492188 32.476563 38.011719 32.476563 62.933594zm0 0" fill="#ff7694"/><path d="m118.984375 470.203125c-42.558594 0-77.1875-34.628906-77.1875-77.1875 0-24.921875 12.140625-48.441406 32.472656-62.933594l17.546875-12.496093v-248.625c0-14.984376 12.183594-27.167969 27.167969-27.167969-8.550781 0-10.285156 12.183593-10.285156 27.167969v248.625s-33.769531 26.464843-33.769531 75.429687c0 42.558594 19.769531 77.1875 44.054687 77.1875zm0 0" fill="#e53737"/><path d="m146.152344 68.960938v90.773437h-54.335938v-90.773437c0-14.984376 12.183594-27.167969 27.167969-27.167969s27.167969 12.183593 27.167969 27.167969zm0 0" fill="#fff"/><g fill="#84abc1"><path d="m91.816406 271.652344h54.335938v15.671875h-54.335938zm0 0"/><path d="m91.816406 211.773438h54.335938v15.671874h-54.335938zm0 0"/><path d="m91.816406 151.898438h54.335938v15.671874h-54.335938zm0 0"/><path d="m91.816406 92.019531h54.335938v15.675781h-54.335938zm0 0"/></g></svg>