<svg height="512pt" viewBox="-13 0 511 512" width="512pt" xmlns="http://www.w3.org/2000/svg"><path d="m469.972656 286.769531h-463.625c-32.011718 0 71.183594-231.101562 217.140625-267.261719 9.636719-2.382812 19.710938-2.382812 29.335938 0 145.964843 36.160157 249.164062 267.261719 217.148437 267.261719zm0 0" fill="#d3ddea"/><path d="m148.425781 144.695312c25.742188 25.730469-34.449219 91.460938-89.484375 142.074219h-52.59375c-32.011718 0 71.183594-231.101562 217.140625-267.261719 9.636719-2.382812 19.710938-2.382812 29.335938 0-50.679688 0-148.746094 80.839844-104.398438 125.1875zm0 0" fill="#84abc1"/><path d="m404.945312 271.574219-3.75 35.097656v181.75h-326.078124v-229.390625l166.796874-150.5zm0 0" fill="#ff7694"/><path d="m404.945312 271.574219-3.75 35.097656v34.488281l-163.035156-163.03125-163.042968 163.03125v-82.128906l166.796874-150.5zm0 0" fill="#e53737"/><path d="m425.628906 331.109375-187.46875-187.472656-187.472656 187.472656-44.339844-44.339844 231.8125-231.8125 231.808594 231.8125zm0 0" fill="#84abc1"/><path d="m171.839844 290.386719h136.386718v136.382812h-136.386718zm0 0" fill="#fff"/><path d="m163.996094 282.542969v108.222656c0 4.328125 3.511718 7.835937 7.839844 7.835937 4.332031 0 7.839843-3.507812 7.839843-7.835937v-92.546875h52.519531v128.550781c0 4.328125 3.507813 7.839844 7.835938 7.839844 4.332031 0 7.839844-3.511719 7.839844-7.839844v-128.550781h52.519531v128.550781c0 4.328125 3.507813 7.839844 7.835937 7.839844 4.332032 0 7.839844-3.511719 7.839844-7.839844v-144.226562zm0 0" fill="#e53737"/><path d="m441.054688 512h-419.4375c-2.140626-10.042969-3.125-20.503906-2.832032-31.25 1.976563-71.59375 60.066406-127.976562 131.6875-127.945312 9.574219.007812 18.90625 1.023437 27.894532 2.96875 16.890624 3.65625 32.566406 10.542968 46.363281 19.992187 23.421875 16.054687 52.519531 21.007813 80.339843 15.363281 7.035157-1.433594 14.300782-2.207031 21.742188-2.269531 62.226562-.53125 113.761719 49.8125 114.628906 112.042969.054688 3.738281-.074218 7.441406-.386718 11.097656zm0 0" fill="#d3ddea"/><path d="m127.082031 512h-105.464843c-2.140626-10.042969-3.125-20.503906-2.832032-31.25 1.976563-71.59375 60.066406-127.976562 131.6875-127.945312 9.574219.007812 18.90625 1.023437 27.894532 2.96875-51.535157.707031-108.746094 93.875-51.285157 156.226562zm0 0" fill="#84abc1"/><g fill="#d3ddea"><path d="m69.652344 44.714844c-2.0625-3.574219-6.632813-4.796875-10.203125-2.734375l-15.320313 8.84375v-17.6875c0-4.125-3.34375-7.472657-7.46875-7.472657-4.128906 0-7.472656 3.347657-7.472656 7.472657v17.6875l-15.320312-8.84375c-3.574219-2.0625-8.144532-.839844-10.207032 2.734375-2.0625 3.574218-.835937 8.140625 2.734375 10.207031l15.320313 8.84375-15.320313 8.84375c-3.570312 2.0625-4.796875 6.632813-2.734375 10.207031 1.386719 2.394532 3.898438 3.738282 6.480469 3.738282 1.265625 0 2.550781-.324219 3.726563-1.003907l15.320312-8.84375v17.6875c0 4.128907 3.34375 7.472657 7.472656 7.472657 4.125 0 7.46875-3.34375 7.46875-7.472657v-17.6875l15.320313 8.84375c1.175781.679688 2.460937 1.003907 3.730469 1.003907 2.578124 0 5.09375-1.34375 6.476562-3.738282 2.0625-3.574218.835938-8.144531-2.734375-10.207031l-15.320313-8.84375 15.320313-8.84375c3.570313-2.0625 4.796875-6.632813 2.730469-10.207031zm0 0"/><path d="m482.414062 127.613281-15.320312-8.84375 15.320312-8.84375c3.574219-2.066406 4.796876-6.632812 2.734376-10.207031s-6.636719-4.796875-10.207032-2.734375l-15.320312 8.84375v-17.6875c0-4.125-3.34375-7.472656-7.46875-7.472656s-7.472656 3.347656-7.472656 7.472656v17.6875l-15.320313-8.84375c-3.574219-2.0625-8.140625-.839844-10.203125 2.734375s-.839844 8.140625 2.734375 10.207031l15.320313 8.84375-15.320313 8.84375c-3.574219 2.0625-4.800781 6.632813-2.734375 10.207031 1.382812 2.394532 3.894531 3.738282 6.476562 3.738282 1.265626 0 2.550782-.324219 3.726563-1.003906l15.320313-8.84375v17.691406c0 4.125 3.347656 7.46875 7.472656 7.46875s7.46875-3.34375 7.46875-7.46875v-17.691406l15.320312 8.84375c1.175782.679687 2.460938 1.003906 3.730469 1.003906 2.582031 0 5.09375-1.34375 6.476563-3.738282 2.0625-3.574218.839843-8.144531-2.734376-10.207031zm0 0"/><path d="m416.421875 19.050781c-2.0625-3.574219-6.636719-4.800781-10.207031-2.734375l-15.320313 8.84375v-17.691406c0-4.125-3.34375-7.46875-7.46875-7.46875-4.128906 0-7.472656 3.34375-7.472656 7.46875v17.691406l-15.320313-8.84375c-3.574218-2.066406-8.144531-.839844-10.207031 2.730469-2.0625 3.574219-.835937 8.144531 2.734375 10.207031l15.320313 8.847656-15.320313 8.84375c-3.570312 2.0625-4.796875 6.632813-2.734375 10.207032 1.386719 2.394531 3.898438 3.734375 6.480469 3.734375 1.265625 0 2.550781-.320313 3.726562-1l15.320313-8.847657v17.691407c0 4.125 3.34375 7.46875 7.472656 7.46875 4.125 0 7.46875-3.34375 7.46875-7.46875v-17.691407l15.320313 8.847657c1.175781.679687 2.460937 1 3.730468 1 2.578126 0 5.09375-1.339844 6.476563-3.734375 2.0625-3.574219.835937-8.144532-2.734375-10.207032l-15.320312-8.84375 15.320312-8.847656c3.570312-2.0625 4.796875-6.628906 2.734375-10.203125zm0 0"/></g></svg>