<svg height="512pt" viewBox="-11 0 512 512" width="512pt" xmlns="http://www.w3.org/2000/svg"><path d="m0 245.050781 34.203125 266.949219 39.769531-198.863281 31.488282 120.976562 31.484374-192.234375 24.859376 77.886719 54.132812-148.035156 46.953125 211.007812 38.117187-157.429687 18.226563 101.089844 28.171875-74.574219 51.371094 241.945312 31.488281-150.800781 21.542969 99.429688 38.296875-197.347657-53.210938-14.769531-197.203125-182.292969-188.089844 188.09375zm0 0" fill="#d3ddea"/><g fill="#84abc1"><path d="m34.203125 512-2.75-263.851562-31.453125-3.097657zm0 0"/><path d="m105.460938 434.113281-25.773438-226.117187-19.507812 27.632812 13.792968 77.507813zm0 0"/><path d="m161.804688 319.765625-26.496094-179.890625 1.636718 102.003906zm0 0"/><path d="m262.890625 382.738281-38.457031-336.40625-8.496094 125.398438zm0 0"/><path d="m319.234375 326.398438-12.304687-257.96875-5.921876 156.878906zm0 0"/><path d="m398.777344 493.769531-22.613282-338.425781-28.757812 96.480469zm0 0"/><path d="m451.808594 442.398438-9.355469-230.339844-12.1875 130.910156zm0 0"/><path d="m443.234375 291.929688-198.179687-198.179688-198.179688 198.179688-46.875-46.878907 245.054688-245.050781 245.050781 245.050781zm0 0"/></g></svg>