<svg height="512pt" viewBox="0 -43 512 512" width="512pt" xmlns="http://www.w3.org/2000/svg"><path d="m512 256c0-141.386719-114.613281-256-256-256-141.382812 0-255.99609375 114.613281-255.99609375 256 0 61.082031 21.39843775 117.183594 57.12499975 161.195312h288.207032c-74.730469 0-135.3125-56.371093-135.3125-125.910156 0-69.535156 60.582031-125.90625 135.3125-125.90625 37.910156 0 72.167968 14.507813 96.734374 37.878906-22.964843 6.550782-39.785156 27.675782-39.785156 52.742188 0 30.296875 24.558594 54.855469 54.855469 54.855469s54.855469-24.558594 54.855469-54.851563zm0 0" fill="#84abc1"/><g fill="#4d87a1"><path d="m210.015625 291.285156c0 69.535156 60.582031 125.910156 135.3125 125.910156h-176.761719c-38.183594-47.03125-76.332031-122.566406-37.953125-213.160156 76.464844-180.523437 280.03125-100.308594 311.453125-.773437-24.566406-23.375-58.828125-37.886719-96.738281-37.886719-74.730469 0-135.3125 56.371094-135.3125 125.910156zm0 0"/><path d="m0 409.355469h511.996094v15.675781h-511.996094zm0 0"/></g></svg>