<svg height="512pt" viewBox="0 0 512 511" width="512pt" xmlns="http://www.w3.org/2000/svg"><path d="m512 228.648438c0 47.527343-38.53125 86.058593-86.078125 86.058593h-311.476563c-63.199218 0-114.44140575-51.226562-114.44140575-114.445312 0-63.199219 51.24218775-114.445313 114.44140575-114.445313 5.671876 0 11.246094.4375 16.707032 1.226563 25.847656-51.324219 79-86.542969 140.40625-86.542969 74.296875 0 136.546875 51.585938 152.894531 120.890625 1.632813 6.914063 2.8125 14.007813 3.492187 21.230469v.015625c46.589844 1.066406 84.054688 39.160156 84.054688 86.011719zm0 0" fill="#d3ddea"/><path d="m326.164062 10.261719c-17.011718-6.316407-35.414062-9.757813-54.605468-9.757813-61.40625 0-114.542969 35.21875-140.410156 86.53125v.015625c-5.457032-.792969-11.03125-1.230469-16.703126-1.230469-63.214843.003907-114.445312 51.246094-114.445312 114.449219 0 63.214844 51.230469 114.445313 114.445312 114.445313h55.316407c-56.964844 0-103.121094-46.171875-103.121094-103.121094 0-50.535156 36.351563-92.585938 84.347656-101.40625 4.75-.886719 9.613281-1.4375 14.570313-1.632812 1.390625-.046876 2.796875-.082032 4.203125-.082032 18.511719 0 35.894531 4.878906 50.90625 13.445313-2.085938-14.53125-17.105469-28.140625-39.25-39.105469 12.160156-41.125 53.542969-79.265625 144.746093-72.550781zm0 0" fill="#84abc1"/><g fill="#4d87a1"><path d="m182.425781 120.742188c20 0 24.804688 12.15625 25.316407 22.359374.222656 4.035157 3.371093 6.257813 8.867187 6.257813 5.617187 0 8.867187-1.582031 8.867187-9.664063 0-20.667968-17.867187-35.101562-43.445312-35.101562-27.488281 0-43.25 15.980469-43.25 43.84375v59.816406c0 14.976563 4.28125 26.382813 12.71875 33.902344 7.304688 6.503906 17.792969 9.945312 30.328125 9.945312 25.699219 0 43.648437-14.679687 43.648437-35.699218 0-8.210938-3.394531-9.859375-8.867187-9.859375-5.46875 0-8.453125 2.09375-8.867187 6.214843-1.175782 9.238282-2.957032 23.195313-24.71875 23.195313-17.832032 0-26.503907-9.058594-26.503907-27.699219v-59.816406c0-18.375 8.714844-27.695312 25.90625-27.695312zm0 0"/><path d="m287.554688 104.59375c-27.890626 0-43.25 15.570312-43.25 43.84375v59.816406c0 28.273438 15.359374 43.847656 43.25 43.847656 28.015624 0 43.445312-15.574218 43.445312-43.847656v-59.816406c0-28.273438-15.429688-43.84375-43.445312-43.84375zm25.707031 103.660156c0 18.121094-8.890625 27.699219-25.707031 27.699219-16.691407 0-25.511719-9.578125-25.511719-27.699219v-59.816406c0-18.117188 8.820312-27.695312 25.511719-27.695312 16.820312 0 25.707031 9.578124 25.707031 27.695312zm0 0"/><path d="m403.039062 257.597656h-33.425781v-2.941406c0-4.8125 6.984375-9.742188 14.375-14.960938 11.105469-7.835937 24.925781-17.589843 24.925781-33.742187 0-15.027344-11.894531-26.355469-27.667968-26.355469-15.027344 0-26.355469 10.101563-26.355469 23.496094 0 7.804688 4.796875 8.96875 7.65625 8.96875 5.441406 0 8.375-3.636719 8.375-7.0625 0-8.566406 6.46875-9.847656 10.324219-9.847656 8.992187 0 11.394531 7.011718 11.394531 11.15625 0 8.242187-9.027344 14.785156-18.578125 21.714844-10.363281 7.515624-21.078125 15.285156-21.078125 26.632812v11.554688c0 3.949218 4.035156 6.707031 7.660156 6.707031h42.394531c3.9375 0 6.585938-3.960938 6.585938-7.660157 0-4.296874-2.894531-7.660156-6.585938-7.660156zm0 0"/></g><path d="m269.867188 411.722656c0 20.640625-12.917969 38.246094-31.125 45.175782-5.347657 2.046874-11.148438 3.15625-17.207032 3.15625-26.695312 0-48.347656-21.636719-48.347656-48.332032 0-26.695312 21.652344-48.332031 48.347656-48.332031 6.058594 0 11.859375 1.109375 17.207032 3.15625 18.207031 6.925781 31.125 24.535156 31.125 45.175781zm0 0" fill="#84abc1"/><path d="m269.867188 411.722656c0 20.640625-12.917969 38.246094-31.125 45.175782-18.203126-6.929688-31.144532-24.539063-31.144532-45.175782 0-20.640625 12.9375-38.246094 31.144532-45.175781 18.207031 6.925781 31.125 24.535156 31.125 45.175781zm0 0" fill="#d3ddea"/><path d="m358.894531 486.582031c0 10.320313-6.460937 19.121094-15.5625 22.585938-2.675781 1.023437-5.574219 1.578125-8.605469 1.578125-13.347656 0-24.171874-10.816406-24.171874-24.164063 0-13.347656 10.824218-24.167969 24.171874-24.167969 3.03125 0 5.929688.558594 8.605469 1.578126 9.101563 3.464843 15.5625 12.269531 15.5625 22.589843zm0 0" fill="#84abc1"/><path d="m358.894531 486.582031c0 10.320313-6.460937 19.121094-15.5625 22.585938-9.105469-3.464844-15.570312-12.265625-15.570312-22.585938 0-10.320312 6.46875-19.125 15.570312-22.589843 9.101563 3.464843 15.5625 12.269531 15.5625 22.589843zm0 0" fill="#d3ddea"/></svg>