<svg height="512pt" viewBox="0 0 512 512" width="512pt" xmlns="http://www.w3.org/2000/svg"><path d="m437.988281 308.914062v202.171876h-314.078125v-202.171876l157.035156-157.035156zm0 0" fill="#d3ddea"/><path d="m461.644531 304.734375-141.027343-212.898437-212.894532 141.023437-33.359375-50.355469 263.253907-174.378906 174.382812 263.253906zm0 0" fill="#ff7694"/><path d="m217.070312 293.222656h131.367188v131.367188h-131.367188zm0 0" fill="#fff"/><path d="m209.226562 285.378906v147.054688h147.054688v-147.054688zm15.6875 15.6875h49.996094v115.679688h-49.996094zm115.679688 115.679688h-49.996094v-115.679688h49.996094zm0 0" fill="#ff7694"/><path d="m185.539062 78.605469h-176.933593c-4.332031 0-7.84375-3.511719-7.84375-7.84375s3.511719-7.84375 7.84375-7.84375h176.933593c13.023438 0 23.617188-10.59375 23.617188-23.613281 0-13.023438-10.59375-23.617188-23.617188-23.617188-13.023437 0-23.617187 10.59375-23.617187 23.617188 0 4.328124-3.507813 7.839843-7.839844 7.839843-4.335937 0-7.84375-3.511719-7.84375-7.839843 0-21.671876 17.628907-39.304688 39.300781-39.304688 21.671876 0 39.304688 17.628906 39.304688 39.304688 0 21.671874-17.632812 39.300781-39.304688 39.300781zm0 0" fill="#d3ddea"/><path d="m61.09375 169.695312h-52.488281c-4.332031 0-7.84375-3.511718-7.84375-7.839843 0-4.332031 3.511719-7.84375 7.84375-7.84375h52.484375c13.023437 0 23.617187-10.59375 23.617187-23.617188 0-13.023437-10.59375-23.617187-23.617187-23.617187-13.019532 0-23.613282 10.59375-23.613282 23.617187 0 4.332031-3.511718 7.84375-7.84375 7.84375-4.332031 0-7.84375-3.511719-7.84375-7.84375 0-21.671875 17.632813-39.304687 39.300782-39.304687 21.675781 0 39.304687 17.632812 39.304687 39.304687s-17.628906 39.300781-39.300781 39.300781zm0 0" fill="#84abc1"/><path d="m71.550781 409.285156c-21.671875 0-39.300781-17.632812-39.300781-39.304687 0-4.332031 3.507812-7.84375 7.839844-7.84375 4.335937 0 7.84375 3.511719 7.84375 7.84375 0 13.023437 10.597656 23.617187 23.617187 23.617187 13.023438 0 23.617188-10.59375 23.617188-23.617187 0-13.019531-10.59375-23.617188-23.617188-23.617188h-62.945312c-4.332031 0-7.84375-3.511719-7.84375-7.839843 0-4.332032 3.511719-7.84375 7.84375-7.84375h62.945312c21.671875 0 39.304688 17.628906 39.304688 39.300781s-17.632813 39.304687-39.304688 39.304687zm0 0" fill="#84abc1"/><path d="m51.769531 214.664062h-43.925781c-4.332031 0-7.84375-3.511718-7.84375-7.84375 0-4.332031 3.511719-7.84375 7.84375-7.84375h43.925781c4.332031 0 7.84375 3.511719 7.84375 7.84375 0 4.332032-3.511719 7.84375-7.84375 7.84375zm0 0" fill="#d3ddea"/><path d="m83.140625 258.585938h-75.296875c-4.332031 0-7.84375-3.511719-7.84375-7.84375 0-4.328126 3.511719-7.839844 7.84375-7.839844h75.296875c4.332031 0 7.84375 3.511718 7.84375 7.839844 0 4.332031-3.511719 7.84375-7.84375 7.84375zm0 0" fill="#84abc1"/><path d="m112.421875 299.371094h-71.109375c-4.335938 0-7.84375-3.511719-7.84375-7.84375 0-4.328125 3.507812-7.839844 7.84375-7.839844h71.109375c4.335937 0 7.84375 3.511719 7.84375 7.839844 0 4.332031-3.507813 7.84375-7.84375 7.84375zm0 0" fill="#d3ddea"/></svg>