<svg height="512pt" viewBox="-56 0 512 512" width="512pt" xmlns="http://www.w3.org/2000/svg"><path d="m40.765625 158.425781c-11.949219-1.867187-20.933594-3.886719-27.683594-5.839843-7.164062-2.074219-12.308593-8.40625-12.710937-15.855469-.3164065-5.875-.4296878-11.742188-.3437502-17.578125.1796872-11.90625 11.8906252-20.144532 23.2031252-16.429688 3.917969 1.289063 8.113281 2.566406 12.59375 3.835938 33.238281 9.433594 77.78125 16.96875 125.40625 21.222656 26.625 2.371094 52.476562 3.570312 76.101562 3.570312 18.652344 0 35.921875-.75 51.085938-2.246093.613281-.058594 1.226562-.121094 1.832031-.1875 6.042969-.628907 10.820312 5.089843 9.078125 10.910156-.015625.054687-.035156.113281-.050781.167969-.808594 2.710937-2.863282 4.875-5.558594 5.738281-6.070312 1.949219-13.703125 4.007813-23.285156 6.078125-30.980469 6.675781-71.667969 11.042969-114.574219 12.277344-42.910156 1.234375-83.789063-.773438-115.09375-5.664063zm0 0" fill="#4d87a1"/><path d="m40.703125 203.085938c-7.761719-2.269532-14.183594-4.476563-19.472656-6.558594-7.4375-2.925782-13.011719-9.300782-14.816407-17.085938-.019531-.082031-.039062-.167968-.058593-.25-1.339844-5.800781 3.832031-11.015625 9.621093-9.621094 5.511719 1.332032 11.640626 2.558594 18.394532 3.695313 26.726562 4.492187 60.46875 6.855469 96.894531 6.855469 8.230469 0 16.589844-.117188 25.042969-.367188 45.871094-1.316406 88.976562-6.113281 121.355468-13.488281.0625-.015625.128907-.03125.191407-.042969 8.222656-1.886718 16.144531 4.25 16.222656 12.6875.078125 8.117188.789063 16.222656 1.949219 24.277344.976562 6.75-3.226563 13.15625-9.839844 14.828125-6.671875 1.691406-15.558594 3.316406-27.246094 4.558594-30.03125 3.1875-69.070312 2.9375-109.925781-.710938-40.851563-3.648437-79.316406-10.3125-108.3125-18.777343zm0 0" fill="#84abc1"/><path d="m303.082031 236.707031c.84375 3.199219-.796875 6.53125-3.855469 7.796875-5.652343 2.335938-13.082031 4.886719-22.847656 7.535156-28.15625 7.628907-65.523437 13.144532-105.210937 15.535157-39.683594 2.394531-77.445313 1.414062-106.316407-2.777344-3.371093-.488281-7.230468-1.199219-10.78125-1.90625-7.65625-1.523437-14.289062-6.1875-18.449218-12.792969-4.476563-7.105468-8.503906-14.414062-12.101563-21.875-3.007812-6.246094 2.859375-13.089844 9.492188-11.078125l.1875.058594c30.3125 9.195313 70.949219 16.394531 114.429687 20.269531 22.359375 1.996094 44.136719 3 64.300782 3 19.027343 0 36.625-.886718 51.890624-2.675781 12.371094-1.445313 22.660157-3.398437 30.902344-5.878906 3.597656-1.082031 7.367188 1.03125 8.324219 4.664062zm0 0" fill="#4d87a1"/><path d="m101.515625 316.851562c-11.230469-7.324218-21.453125-15.390624-30.703125-24.066406-4.585938-4.304687-1.121094-11.976562 5.140625-11.410156 15.636719 1.417969 38.113281 3.160156 53.671875 3.160156 13.6875 0 27.960938-.4375 42.484375-1.316406 42.003906-2.527344 81.355469-8.472656 110.8125-16.726562 5.945313-1.667969 11.34375-3.382813 16.207031-5.152344 5.398438-1.960938 11.328125 1.054687 12.996094 6.546875 1.035156 3.410156 2.066406 6.792969 3.070312 10.144531 1.222657 4.085938-.246093 8.503906-3.695312 11.003906-4.457031 3.230469-11.230469 7.109375-21.378906 11.351563-22.675782 9.488281-53.625 17.355469-87.164063 22.140625-24.484375 3.496094-48.097656 5.03125-68.5625 4.527344-11.695312-.285157-23.082031-3.816407-32.878906-10.203126zm0 0" fill="#84abc1"/><path d="m131.347656 510.003906c.804688 0 1.601563-.011718 2.394532-.042968-.03125.671874-.042969 1.347656-.042969 2.039062h-35.609375c-2.3125 0-4.109375-1.972656-3.949219-4.277344.003906-.035156.003906-.066406.007813-.101562.191406-2.675782 2.96875-4.332032 5.460937-3.335938 6.492187 2.585938 14.183594 4.40625 22.273437 5.226563 3.195313.335937 6.371094.492187 9.464844.492187zm0 0" fill="#4d87a1"/><path d="m142.050781 486.6875c-.621093.851562-1.207031 1.714844-1.765625 2.589844-1.976562 3.121094-5.347656 5.070312-9.042968 5.0625-2.40625-.007813-5-.136719-7.773438-.417969-1.539062-.15625-3.019531-.351563-4.433594-.574219-11.316406-1.789062-17.027344-14.546875-11.050781-24.328125 1.28125-2.101562 2.625-4.183593 4.015625-6.246093 1.660156-2.472657 5.019531-3.121094 7.492188-1.464844l.050781.03125c5.023437 3.34375 11.175781 6.542968 18.03125 9.417968 6.28125 2.636719 8.492187 10.429688 4.476562 15.929688zm0 0" fill="#84abc1"/><path d="m189.519531 454.382812c-5.023437 2.242188-9.863281 4.535157-14.449219 6.914063-3.980468 2.066406-8.585937 2.527344-12.910156 1.347656-1.191406-.324219-2.402344-.671875-3.632812-1.039062-7.636719-2.273438-14.121094-4.804688-19.460938-7.304688-7.9375-3.722656-10.332031-13.859375-4.867187-20.714843.109375-.136719.21875-.273438.328125-.410157 4.195312-5.265625 11.585937-6.558593 17.433594-3.214843 1.226562.699218 2.496093 1.382812 3.816406 2.050781 9.222656 4.667969 20.332031 8.359375 32.511718 10.878906 5.777344 1.195313 6.617188 9.089844 1.230469 11.492187zm0 0" fill="#4d87a1"/><path d="m289.03125 388.011719c8.269531-1.808594 13.503906 8.667969 6.976562 14.058593-.078124.066407-.15625.128907-.234374.195313-2.613282 2.160156-5.359376 4.230469-8.203126 6.214844-9.855468 6.917969-20.960937 12.890625-32.5625 18.328125-3.96875 1.863281-8.21875 3.035156-12.578124 3.472656-8.6875.871094-18.015626 1.007812-27.59375.382812-19.988282-1.304687-38.453126-5.796874-51.984376-12.640624-.046874-.027344-.09375-.046876-.140624-.074219-6.308594-3.199219-8.914063-10.953125-5.78125-17.296875.492187-1.003906.960937-2.007813 1.402343-3.011719 2.480469-5.652344 8.609375-8.808594 14.640625-7.515625 14.894532 3.195312 32.359375 4.753906 50.398438 4.753906 6.59375 0 13.269531-.210937 19.917968-.628906 15.6875-.972656 31.367188-3.085938 45.742188-6.238281zm0 0" fill="#84abc1"/><path d="m327.203125 338.671875v.21875c-.027344 12.492187-8.035156 23.644531-19.824219 27.78125-15.652344 5.492187-37.460937 10.222656-65.0625 11.9375-28.257812 1.753906-50.882812-.386719-67.191406-4.066406-7.246094-1.636719-13.351562-6.40625-16.832031-12.972657-1.484375-2.800781-3.371094-5.613281-5.699219-8.449218-3.410156-4.148438-.570312-10.402344 4.792969-10.621094 15.164062-.609375 31.304687-2.105469 47.78125-4.453125 34.816406-4.976563 67.136719-13.210937 91.003906-23.199219 4.523437-1.890625 8.65625-3.808594 12.398437-5.753906 6.84375-3.554688 15.242188.578125 16.574219 8.175781 1.296875 7.398438 2.058594 14.546875 2.058594 21.402344zm0 0" fill="#4d87a1"/><path d="m391.039062 42.996094c-34.628906 18.722656-57.851562 38.660156-72.859374 59.230468-3.625 4.96875-9.070313 8.28125-15.144532 9.246094-5.726562.910156-12.5 1.746094-20.507812 2.441406-32.863282 2.84375-75.441406 2.226563-119.894532-1.746093-44.449218-3.96875-86.464843-10.898438-118.3125-19.519531-11.535156-3.121094-20.328124-6.070313-27.023437-8.730469-7.890625-3.136719-12.308594-11.574219-10.300781-19.824219 2.554687-10.503906 5.792968-20.703125 9.675781-30.46875zm0 0" fill="#84abc1"/><g fill="#4d87a1"><path d="m399.105469 33.621094c0-18.570313-85.609375-33.621094-191.21875-33.621094-105.605469 0-191.214844 15.050781-191.214844 33.621094 0 18.566406 85.609375 33.621094 191.214844 33.621094 105.609375 0 191.21875-15.054688 191.21875-33.621094zm0 0"/><path d="m295.773438 402.265625c-2.613282 2.160156-5.359376 4.230469-8.203126 6.214844.785157-3.761719 4.234376-6.476563 8.171876-6.214844zm0 0"/></g></svg>