<svg height="512pt" viewBox="0 -24 512 512" width="512pt" xmlns="http://www.w3.org/2000/svg"><path d="m427.015625 69.699219-132.851563 132.847656c-19.707031-19.707031-51.667968-19.707031-71.375 0-19.71875 19.71875-19.71875 51.679687-.007812 71.386719l-132.84375 132.84375c-92.929688-92.929688-92.9375-244.140625 0-337.078125 92.929688-92.933594 244.148438-92.933594 337.078125 0zm0 0" fill="#84abc1"/><path d="m393.804688 102.910156-99.640626 99.636719c-19.707031-19.707031-51.667968-19.707031-71.375 0-19.71875 19.714844-19.71875 51.675781-.007812 71.386719l-99.632812 99.628906c-74.617188-74.617188-74.625-196.027344 0-270.652344 74.621093-74.617187 196.035156-74.617187 270.65625 0zm0 0" fill="#6dd198"/><path d="m360.589844 136.125-66.425782 66.421875c-19.707031-19.707031-51.667968-19.707031-71.375 0-19.71875 19.71875-19.71875 51.679687-.007812 71.386719l-66.417969 66.417968c-56.308593-56.304687-56.308593-147.921874 0-204.226562 56.304688-56.308594 147.921875-56.308594 204.226563 0zm0 0" fill="#ffee8c"/><path d="m327.378906 169.335938-33.214844 33.210937c-19.707031-19.707031-51.667968-19.707031-71.375 0-19.71875 19.71875-19.71875 51.679687-.007812 71.386719l-33.207031 33.207031c-37.992188-37.996094-37.992188-99.8125 0-137.804687 37.996093-37.992188 99.808593-37.992188 137.804687 0zm0 0" fill="#ff7694"/><path d="m331.726562 407.574219c0 30.792969-24.960937 55.757812-55.769531 55.757812h-201.804687c-40.949219 0-74.152344-33.191406-74.152344-74.148437 0-40.949219 33.203125-74.148438 74.152344-74.148438 3.671875 0 7.285156.28125 10.820312.792969 16.75-33.253906 51.1875-56.070313 90.972656-56.070313 48.136719 0 88.46875 33.421876 99.0625 78.324219 1.054688 4.480469 1.820313 9.074219 2.257813 13.753907v.011718c30.1875.691406 54.460937 25.371094 54.460937 55.726563zm0 0" fill="#d3ddea"/><path d="m211.324219 266.082031c-11.023438-4.09375-22.945313-6.320312-35.378907-6.320312-39.789062 0-74.214843 22.816406-90.972656 56.0625v.007812c-3.539062-.511719-7.148437-.792969-10.824218-.792969-40.957032 0-74.148438 33.199219-74.148438 74.148438 0 40.957031 33.191406 74.148438 74.148438 74.148438h35.839843c-36.90625 0-66.8125-29.914063-66.8125-66.8125 0-32.738282 23.554688-59.984376 54.652344-65.699219 3.074219-.578125 6.226563-.933594 9.441406-1.058594.898438-.03125 1.808594-.054687 2.71875-.054687 11.996094 0 23.257813 3.164062 32.984375 8.710937-1.351562-9.414063-11.082031-18.230469-25.429687-25.335937 7.878906-26.644532 34.691406-51.355469 93.78125-47.003907zm0 0" fill="#84abc1"/><path d="m512 167.625c0 23.625-19.152344 42.777344-42.785156 42.777344h-154.832032c-31.414062 0-56.886718-25.464844-56.886718-56.886719 0-31.414063 25.472656-56.890625 56.886718-56.890625 2.820313 0 5.589844.21875 8.304688.613281 12.847656-25.515625 39.269531-43.023437 69.792969-43.023437 36.933593 0 67.875 25.644531 76 60.09375.8125 3.4375 1.398437 6.964844 1.734375 10.554687v.007813c23.160156.527344 41.785156 19.464844 41.785156 42.753906zm0 0" fill="#d3ddea"/><path d="m419.625 59.070312c-8.457031-3.140624-17.605469-4.851562-27.144531-4.851562-30.523438 0-56.9375 17.507812-69.792969 43.011719v.007812c-2.714844-.390625-5.484375-.609375-8.304688-.609375-31.421874 0-56.886718 25.472656-56.886718 56.890625 0 31.421875 25.464844 56.886719 56.886718 56.886719h27.496094c-28.316406 0-51.257812-22.953125-51.257812-51.257812 0-25.121094 18.066406-46.023438 41.925781-50.410157 2.363281-.441406 4.777344-.714843 7.246094-.808593.6875-.027344 1.386719-.042969 2.085937-.042969 9.203125 0 17.84375 2.425781 25.304688 6.683593-1.035156-7.222656-8.5-13.988281-19.507813-19.441406 6.042969-20.441406 26.613281-39.398437 71.949219-36.058594zm0 0" fill="#84abc1"/></svg>